<svg width="148" height="60" viewBox="0 0 148 60" fill="none" xmlns="http://www.w3.org/2000/svg">
<g clip-path="url(#clip0_710_5292)">
<g clip-path="url(#clip1_710_5292)">
<path d="M18.9338 11.22C20.9202 10.0972 23.2746 10.0972 25.261 11.22L36.2967 17.7318C38.2834 18.8546 39.4603 21.0252 39.4603 23.3456V36.2944C39.4603 38.6147 38.2834 40.7105 36.2967 41.9083L25.261 48.42C23.2746 49.5427 20.9202 49.5427 18.9338 48.42L7.89796 41.9083C5.91155 40.7853 4.73438 38.6147 4.73438 36.2944V23.3456C4.73438 21.0252 5.91155 18.9295 7.89796 17.7318L18.9338 11.22Z" fill="url(#paint0_linear_710_5292)"/>
<path d="M18.9338 11.22C20.9202 10.0972 23.2746 10.0972 25.261 11.22L36.2967 17.7318C38.2834 18.8546 39.4603 21.0252 39.4603 23.3456V36.2944C39.4603 38.6147 38.2834 40.7105 36.2967 41.9083L25.261 48.42C23.2746 49.5427 20.9202 49.5427 18.9338 48.42L7.89796 41.9083C5.91155 40.7853 4.73438 38.6147 4.73438 36.2944V23.3456C4.73438 21.0252 5.91155 18.9295 7.89796 17.7318L18.9338 11.22Z" fill="#23273D"/>
<path d="M53.1098 35.6957V34.2735H56.7885C57.4509 34.2735 58.0391 34.049 58.4074 33.6748C58.7751 33.2256 58.9956 32.7766 58.9956 32.1778C58.9956 31.8035 58.922 31.4293 58.7015 31.1299C58.5542 30.8305 58.2601 30.5311 57.9655 30.3814C57.6713 30.1568 57.2299 30.082 56.7885 30.082H53.1098V28.6599H56.5676C57.1563 28.6599 57.5977 28.5102 57.9655 28.2108C58.3337 27.9114 58.4806 27.4623 58.4806 26.8635C58.4806 26.2647 58.3337 25.8156 57.9655 25.5162C57.5977 25.2168 57.1563 25.0671 56.5676 25.0671H53.1834V23.645H56.6412C57.4509 23.645 58.1128 23.7947 58.6279 24.0941C59.1429 24.3935 59.5843 24.7677 59.8048 25.2168C60.0994 25.6659 60.2463 26.1899 60.2463 26.7886C60.2463 27.4623 60.0994 28.0611 59.7312 28.5102C59.3634 29.0341 58.8483 29.4084 58.1864 29.7078L58.3337 29.1838C59.1429 29.4832 59.7312 29.9323 60.1731 30.4562C60.614 31.055 60.835 31.7287 60.835 32.4772C60.835 33.1508 60.6877 33.6748 60.3936 34.1987C60.0994 34.7227 59.658 35.1717 59.0693 35.4712C58.4806 35.7705 57.745 35.9202 56.9358 35.9202H53.1098V35.6957ZM52.0801 35.6957V23.4204H53.6985V35.6957H52.0801ZM62.3798 35.6957V23.4204H63.9986V35.6957H62.3798ZM70.105 35.6957V23.4204H71.7238V35.6957H70.105ZM63.4836 30.1568V28.6599H70.5464V30.1568H63.4836ZM77.021 35.6957V23.2707H78.6394L79.3754 25.6659V35.6957H77.021ZM85.4817 35.6957L78.198 26.115L78.6394 23.1959L85.9232 32.7766L85.4817 35.6957ZM85.4817 35.6957L84.8194 33.3753V23.2707H87.1738V35.6957H85.4817ZM92.9124 35.9202C92.0295 35.9202 91.2203 35.6957 90.5579 35.3214C89.896 34.9472 89.3073 34.4232 88.9395 33.7496C88.5717 33.076 88.3508 32.3275 88.3508 31.4293C88.3508 30.6059 88.5717 29.8574 88.9395 29.1838C89.3073 28.5102 89.896 27.9862 90.5579 27.612C91.2203 27.2377 91.9559 27.0132 92.7655 27.0132C93.5747 27.0132 94.3103 27.2377 94.899 27.612C95.4873 27.9862 96.0024 28.5102 96.3701 29.109C96.7384 29.7826 96.8852 30.4562 96.8852 31.2796C96.8852 31.4293 96.8852 31.579 96.8852 31.7287C96.8852 31.8784 96.8116 32.0281 96.8116 32.2527H89.7487V30.5311H95.7819L94.8254 31.2796C94.8254 30.7556 94.6781 30.3814 94.5312 30.0071C94.3839 29.6329 94.163 29.4084 93.8689 29.2587C93.5747 29.0341 93.2065 28.9593 92.7655 28.9593C92.3236 28.9593 91.9559 29.0341 91.5881 29.2587C91.2203 29.4832 90.9994 29.7826 90.7789 30.1568C90.6316 30.5311 90.4847 30.9802 90.4847 31.4293C90.4847 31.9532 90.5579 32.4024 90.7789 32.7766C90.9994 33.1508 91.2203 33.4502 91.5881 33.6748C91.9559 33.8993 92.3973 33.9742 92.8387 33.9742C93.2801 33.9742 93.6484 33.8993 94.0162 33.7496C94.3839 33.5999 94.6781 33.3753 94.899 33.076L96.2233 34.4232C95.7819 34.8724 95.3404 35.2466 94.7517 35.546C94.2366 35.7705 93.5747 35.9202 92.9124 35.9202ZM98.7982 35.6957V23.645H101.079V35.7705H98.7982V35.6957ZM96.8852 29.1838V27.1629H103.065V29.1838H96.8852ZM106.082 35.6957L102.918 27.1629H105.199L107.259 33.3753H106.597L108.731 27.1629H110.349L112.482 33.3753H111.821L113.88 27.1629H116.161L112.924 35.6957H111.305L109.172 29.7826H109.834L107.7 35.6957H106.082ZM120.429 35.9202C119.619 35.9202 118.81 35.6957 118.148 35.3214C117.485 34.9472 116.97 34.3484 116.529 33.6748C116.161 33.0011 115.94 32.2527 115.94 31.4293C115.94 30.6059 116.161 29.8574 116.529 29.1838C116.897 28.5102 117.485 27.9862 118.148 27.612C118.81 27.2377 119.619 27.0132 120.429 27.0132C121.311 27.0132 122.047 27.2377 122.709 27.612C123.371 27.9862 123.96 28.5102 124.328 29.1838C124.696 29.8574 124.916 30.6059 124.916 31.4293C124.916 32.2527 124.696 33.0011 124.328 33.6748C123.96 34.3484 123.371 34.8724 122.709 35.3214C122.047 35.6957 121.238 35.9202 120.429 35.9202ZM120.429 33.7496C120.87 33.7496 121.238 33.6748 121.532 33.4502C121.9 33.2256 122.121 33.0011 122.268 32.6269C122.488 32.2527 122.562 31.8784 122.562 31.4293C122.562 30.9802 122.488 30.6059 122.268 30.2317C122.047 29.8574 121.826 29.6329 121.532 29.4084C121.238 29.1838 120.796 29.109 120.429 29.109C119.987 29.109 119.619 29.1838 119.325 29.4084C119.031 29.6329 118.736 29.8574 118.589 30.2317C118.368 30.6059 118.295 30.9802 118.295 31.4293C118.295 31.8784 118.368 32.2527 118.589 32.6269C118.81 33.0011 119.031 33.2256 119.325 33.4502C119.619 33.5999 119.987 33.7496 120.429 33.7496ZM125.873 35.6957V27.1629H128.153V35.6957H125.873ZM128.153 30.9802L127.271 30.3814C127.344 29.3335 127.712 28.5102 128.153 27.9114C128.668 27.3125 129.404 27.0132 130.287 27.0132C130.728 27.0132 131.023 27.088 131.391 27.2377C131.685 27.3874 131.979 27.612 132.274 27.9114L130.876 29.5581C130.728 29.4084 130.581 29.3335 130.434 29.2587C130.287 29.1838 130.066 29.1838 129.845 29.1838C129.33 29.1838 128.963 29.3335 128.668 29.6329C128.301 29.8574 128.153 30.3814 128.153 30.9802ZM137.938 35.6957L134.702 31.2796L137.938 27.1629H140.587L136.761 31.8035L136.835 30.6808L140.734 35.6957H137.938ZM132.568 35.6957V22.8965H134.848V35.6957H132.568Z" fill="white"/>
<path d="M53.1098 35.6957V34.2735H56.7885C57.4509 34.2735 58.0391 34.049 58.4074 33.6748C58.7751 33.2256 58.9956 32.7766 58.9956 32.1778C58.9956 31.8035 58.922 31.4293 58.7015 31.1299C58.5542 30.8305 58.2601 30.5311 57.9655 30.3814C57.6713 30.1568 57.2299 30.082 56.7885 30.082H53.1098V28.6599H56.5676C57.1563 28.6599 57.5977 28.5102 57.9655 28.2108C58.3337 27.9114 58.4806 27.4623 58.4806 26.8635C58.4806 26.2647 58.3337 25.8156 57.9655 25.5162C57.5977 25.2168 57.1563 25.0671 56.5676 25.0671H53.1834V23.645H56.6412C57.4509 23.645 58.1128 23.7947 58.6279 24.0941C59.1429 24.3935 59.5843 24.7677 59.8048 25.2168C60.0994 25.6659 60.2463 26.1899 60.2463 26.7886C60.2463 27.4623 60.0994 28.0611 59.7312 28.5102C59.3634 29.0341 58.8483 29.4084 58.1864 29.7078L58.3337 29.1838C59.1429 29.4832 59.7312 29.9323 60.1731 30.4562C60.614 31.055 60.835 31.7287 60.835 32.4772C60.835 33.1508 60.6877 33.6748 60.3936 34.1987C60.0994 34.7227 59.658 35.1717 59.0693 35.4712C58.4806 35.7705 57.745 35.9202 56.9358 35.9202H53.1098V35.6957ZM52.0801 35.6957V23.4204H53.6985V35.6957H52.0801ZM62.3798 35.6957V23.4204H63.9986V35.6957H62.3798ZM70.105 35.6957V23.4204H71.7238V35.6957H70.105ZM63.4836 30.1568V28.6599H70.5464V30.1568H63.4836ZM77.021 35.6957V23.2707H78.6394L79.3754 25.6659V35.6957H77.021ZM85.4817 35.6957L78.198 26.115L78.6394 23.1959L85.9232 32.7766L85.4817 35.6957ZM85.4817 35.6957L84.8194 33.3753V23.2707H87.1738V35.6957H85.4817ZM92.9124 35.9202C92.0295 35.9202 91.2203 35.6957 90.5579 35.3214C89.896 34.9472 89.3073 34.4232 88.9395 33.7496C88.5717 33.076 88.3508 32.3275 88.3508 31.4293C88.3508 30.6059 88.5717 29.8574 88.9395 29.1838C89.3073 28.5102 89.896 27.9862 90.5579 27.612C91.2203 27.2377 91.9559 27.0132 92.7655 27.0132C93.5747 27.0132 94.3103 27.2377 94.899 27.612C95.4873 27.9862 96.0024 28.5102 96.3701 29.109C96.7384 29.7826 96.8852 30.4562 96.8852 31.2796C96.8852 31.4293 96.8852 31.579 96.8852 31.7287C96.8852 31.8784 96.8116 32.0281 96.8116 32.2527H89.7487V30.5311H95.7819L94.8254 31.2796C94.8254 30.7556 94.6781 30.3814 94.5312 30.0071C94.3839 29.6329 94.163 29.4084 93.8689 29.2587C93.5747 29.0341 93.2065 28.9593 92.7655 28.9593C92.3236 28.9593 91.9559 29.0341 91.5881 29.2587C91.2203 29.4832 90.9994 29.7826 90.7789 30.1568C90.6316 30.5311 90.4847 30.9802 90.4847 31.4293C90.4847 31.9532 90.5579 32.4024 90.7789 32.7766C90.9994 33.1508 91.2203 33.4502 91.5881 33.6748C91.9559 33.8993 92.3973 33.9742 92.8387 33.9742C93.2801 33.9742 93.6484 33.8993 94.0162 33.7496C94.3839 33.5999 94.6781 33.3753 94.899 33.076L96.2233 34.4232C95.7819 34.8724 95.3404 35.2466 94.7517 35.546C94.2366 35.7705 93.5747 35.9202 92.9124 35.9202ZM98.7982 35.6957V23.645H101.079V35.7705H98.7982V35.6957ZM96.8852 29.1838V27.1629H103.065V29.1838H96.8852ZM106.082 35.6957L102.918 27.1629H105.199L107.259 33.3753H106.597L108.731 27.1629H110.349L112.482 33.3753H111.821L113.88 27.1629H116.161L112.924 35.6957H111.305L109.172 29.7826H109.834L107.7 35.6957H106.082ZM120.429 35.9202C119.619 35.9202 118.81 35.6957 118.148 35.3214C117.485 34.9472 116.97 34.3484 116.529 33.6748C116.161 33.0011 115.94 32.2527 115.94 31.4293C115.94 30.6059 116.161 29.8574 116.529 29.1838C116.897 28.5102 117.485 27.9862 118.148 27.612C118.81 27.2377 119.619 27.0132 120.429 27.0132C121.311 27.0132 122.047 27.2377 122.709 27.612C123.371 27.9862 123.96 28.5102 124.328 29.1838C124.696 29.8574 124.916 30.6059 124.916 31.4293C124.916 32.2527 124.696 33.0011 124.328 33.6748C123.96 34.3484 123.371 34.8724 122.709 35.3214C122.047 35.6957 121.238 35.9202 120.429 35.9202ZM120.429 33.7496C120.87 33.7496 121.238 33.6748 121.532 33.4502C121.9 33.2256 122.121 33.0011 122.268 32.6269C122.488 32.2527 122.562 31.8784 122.562 31.4293C122.562 30.9802 122.488 30.6059 122.268 30.2317C122.047 29.8574 121.826 29.6329 121.532 29.4084C121.238 29.1838 120.796 29.109 120.429 29.109C119.987 29.109 119.619 29.1838 119.325 29.4084C119.031 29.6329 118.736 29.8574 118.589 30.2317C118.368 30.6059 118.295 30.9802 118.295 31.4293C118.295 31.8784 118.368 32.2527 118.589 32.6269C118.81 33.0011 119.031 33.2256 119.325 33.4502C119.619 33.5999 119.987 33.7496 120.429 33.7496ZM125.873 35.6957V27.1629H128.153V35.6957H125.873ZM128.153 30.9802L127.271 30.3814C127.344 29.3335 127.712 28.5102 128.153 27.9114C128.668 27.3125 129.404 27.0132 130.287 27.0132C130.728 27.0132 131.023 27.088 131.391 27.2377C131.685 27.3874 131.979 27.612 132.274 27.9114L130.876 29.5581C130.728 29.4084 130.581 29.3335 130.434 29.2587C130.287 29.1838 130.066 29.1838 129.845 29.1838C129.33 29.1838 128.963 29.3335 128.668 29.6329C128.301 29.8574 128.153 30.3814 128.153 30.9802ZM137.938 35.6957L134.702 31.2796L137.938 27.1629H140.587L136.761 31.8035L136.835 30.6808L140.734 35.6957H137.938ZM132.568 35.6957V22.8965H134.848V35.6957H132.568Z" fill="#141935"/>
<path d="M18.9338 11.22C20.9202 10.0972 23.2746 10.0972 25.261 11.22L36.2967 17.7318C38.2834 18.8546 39.4603 21.0252 39.4603 23.3456V36.2944C39.4603 38.6147 38.2834 40.7105 36.2967 41.9083L25.261 48.42C23.2746 49.5427 20.9202 49.5427 18.9338 48.42L7.89796 41.9083C5.91155 40.7853 4.73438 38.6147 4.73438 36.2944V23.3456C4.73438 21.0252 5.91155 18.9295 7.89796 17.7318L18.9338 11.22Z" fill="url(#paint1_linear_710_5292)"/>
<path d="M18.9338 11.22C20.9202 10.0972 23.2746 10.0972 25.261 11.22L36.2967 17.7318C38.2834 18.8546 39.4603 21.0252 39.4603 23.3456V36.2944C39.4603 38.6147 38.2834 40.7105 36.2967 41.9083L25.261 48.42C23.2746 49.5427 20.9202 49.5427 18.9338 48.42L7.89796 41.9083C5.91155 40.7853 4.73438 38.6147 4.73438 36.2944V23.3456C4.73438 21.0252 5.91155 18.9295 7.89796 17.7318L18.9338 11.22Z" fill="#23273D"/>
<path d="M32.3233 26.6393H28.5712C28.2769 26.6393 27.909 26.7142 27.6147 26.789C25.849 27.5375 24.0833 28.2111 22.244 28.4357C19.9632 28.7351 17.7561 28.1363 15.9903 26.5645H11.7231C10.8403 26.5645 10.3988 27.6123 11.061 28.2111C11.9439 29.0345 12.9739 29.783 14.0775 30.3069C14.666 30.6063 15.2546 30.8309 15.8432 31.0554C15.9903 31.4296 16.1375 31.8039 16.3582 32.1781L17.0939 33.8996C17.3882 34.5733 17.7561 35.0973 18.2711 35.6212L19.5954 36.8936C19.8161 37.193 20.1104 37.4924 20.3311 37.7918C20.5518 38.0164 20.8461 38.2409 21.1404 38.3906C21.4347 38.5403 21.8025 38.6152 22.0968 38.6152C22.3911 38.6152 22.759 38.5403 23.0533 38.3906C23.3475 38.2409 23.6418 38.0164 23.8625 37.7918C24.0833 37.4924 24.304 37.193 24.5983 36.8936L25.9225 35.6212C26.4376 35.1721 26.8054 34.5733 27.0997 33.8996L27.8355 32.1781C28.0562 31.8039 28.2033 31.4296 28.3504 31.0554C30.1162 30.4566 31.7347 29.4836 33.1326 28.2111C33.2062 28.1363 33.2798 28.0614 33.3534 27.9117C33.4269 27.762 33.4269 27.6872 33.4269 27.5375C33.4269 27.3878 33.4269 27.3129 33.3534 27.1632C33.2798 27.0135 33.2062 26.9387 33.1326 26.8639C33.059 26.789 32.9119 26.7142 32.8384 26.6393C32.6176 26.6393 32.4705 26.6393 32.3233 26.6393ZM18.4182 34.2739C17.3146 33.5254 16.6525 32.4027 16.5789 31.3548C16.8732 31.4296 17.2411 31.5045 17.5353 31.5793L18.6389 31.8039C19.1539 31.8788 19.7425 31.9536 20.2575 32.0284C20.9932 32.7769 21.4347 33.7499 21.4347 34.5733C21.3611 34.5733 21.3611 34.6481 21.2875 34.6481C20.6254 35.0973 19.5218 35.0224 18.4182 34.2739ZM22.8326 34.6481C22.759 34.6481 22.759 34.5733 22.6854 34.5733C22.6854 33.7499 23.1268 32.7769 23.8625 32.0284C24.3775 31.9536 24.9661 31.8788 25.4811 31.8039L26.5847 31.5793C26.879 31.5045 27.2469 31.4296 27.5411 31.3548C27.4676 32.4027 26.8054 33.5254 25.7019 34.2739C24.5983 35.0224 23.4947 35.0973 22.8326 34.6481Z" fill="white"/>
<path d="M18.9331 26.6392C19.7424 26.9386 20.6252 27.238 21.2138 27.238C21.5081 27.238 21.8024 27.238 22.0967 27.1631C22.906 27.0135 23.6417 26.8638 24.3774 26.6392C25.4074 26.3398 26.5846 25.9656 27.4674 25.5913C27.6882 25.5165 27.8353 25.4416 28.0561 25.3667L27.9825 24.3938L27.6882 21.9985C27.6882 21.8489 27.6146 21.6243 27.541 21.4746C27.4674 21.3249 27.3203 21.1752 27.1732 21.1004C27.026 21.0255 26.8789 20.9507 26.7317 20.9507C26.5846 20.9507 26.3639 20.9507 26.2167 21.0255L18.1238 23.4207L21.1402 21.6992L20.846 21.774C20.6252 21.8489 20.4045 21.8489 20.2574 21.774C20.0367 21.6992 19.8895 21.6243 19.6688 21.5495C19.4481 21.3998 19.2274 21.3249 19.0066 21.3249C18.7859 21.3249 18.4917 21.3249 18.2709 21.3998C18.0502 21.4746 17.8295 21.6243 17.6824 21.8489C17.5352 22.0734 17.3881 22.1482 17.3145 22.3728L16.4316 25.2919C16.5052 25.3667 16.5788 25.3667 16.6524 25.4416C17.3881 25.9656 18.1238 26.3398 18.9331 26.6392Z" fill="white"/>
</g>
</g>
<defs>
<linearGradient id="paint0_linear_710_5292" x1="23.1143" y1="29.766" x2="-8.13657" y2="31.37" gradientUnits="userSpaceOnUse">
<stop stop-color="white"/>
<stop offset="1"/>
</linearGradient>
<linearGradient id="paint1_linear_710_5292" x1="23.1143" y1="29.766" x2="-8.13657" y2="31.37" gradientUnits="userSpaceOnUse">
<stop stop-color="white"/>
<stop offset="1"/>
</linearGradient>
<clipPath id="clip0_710_5292">
<rect width="147" height="60" fill="white" transform="translate(0.400391)"/>
</clipPath>
<clipPath id="clip1_710_5292">
<rect width="136.133" height="39.5521" fill="white" transform="translate(4.65625 10.1597)"/>
</clipPath>
</defs>
</svg>
