<svg width="157" height="38" viewBox="0 0 157 38" fill="none" xmlns="http://www.w3.org/2000/svg">
<g clip-path="url(#clip0_638_4814)">
<g clip-path="url(#clip1_638_4814)">
<mask id="mask0_638_4814" style="mask-type:luminance" maskUnits="userSpaceOnUse" x="0" y="6" width="157" height="26">
<path d="M156.264 6.33325H0V31.6415H156.264V6.33325Z" fill="white"/>
</mask>
<g mask="url(#mask0_638_4814)">
<path d="M36.3693 18.8244C36.3693 21.9096 38.6769 23.9663 41.461 23.9663C42.966 23.9663 44.4709 23.5399 45.7501 22.7624V25.7472C45.1732 26.0984 43.4425 26.7505 41.4861 26.7505C36.9462 26.7505 33.3594 23.3142 33.3594 18.8244C33.3594 14.3347 36.9462 10.8984 41.4861 10.8984C43.4425 10.8984 45.1732 11.5505 45.7501 11.9017V14.8865C44.4709 14.1089 42.966 13.6825 41.461 13.6825C38.6769 13.6825 36.3693 15.7393 36.3693 18.8244ZM59.094 19V26.5248H56.3099V19.8779C56.3099 18.5736 55.733 17.5703 54.228 17.5703C52.7732 17.5703 51.9204 18.4733 51.9204 20.1287V26.4997H49.1614V10.196H51.9455V17.1941C52.1462 16.6924 52.9237 15.1122 55.2815 15.1122C57.6643 15.1373 59.094 16.567 59.094 19ZM74.2439 24.167V26.4997H70.6571C70.4062 26.5248 70.2056 26.3241 70.2056 26.0733V24.0667C69.8293 25.396 68.801 26.7254 66.6689 26.7254C63.7594 26.7254 61.6775 24.5683 61.6775 20.9314C61.6775 17.2442 63.9851 15.1122 66.8445 15.1122C69.4782 15.1122 70.0049 17.2693 70.0049 17.2693V15.363H72.7891V24.1921H74.2439V24.167ZM70.0551 20.9564C70.0551 18.8495 69.0518 17.5452 67.3713 17.5452C65.766 17.5452 64.5369 18.7241 64.5369 20.9314C64.5369 23.1386 65.5402 24.3175 67.2458 24.3175C68.9765 24.3426 70.0551 23.2139 70.0551 20.9564ZM80.6399 15.8145V26.5248H77.8557V17.6957H75.8241V15.363H80.1884C80.4392 15.338 80.6399 15.5637 80.6399 15.8145ZM80.5396 13.0304H77.5297V10.2211H80.5396V13.0304ZM83.8755 15.363H86.6346V17.3446C86.7349 17.0436 87.3871 15.1373 89.9957 15.1373C92.4036 15.1373 93.8333 16.567 93.8333 19V26.5248H91.0491V19.8779C91.0491 18.5736 90.4722 17.5703 88.9673 17.5703C87.5125 17.5703 86.6597 18.4733 86.6597 20.1287V26.4997H83.8755V15.363ZM108.983 24.167V26.4997H105.396C105.146 26.5248 104.945 26.3241 104.945 26.0733V24.0667C104.569 25.396 103.54 26.7254 101.408 26.7254C98.4986 26.7254 96.4168 24.5683 96.4168 20.9314C96.4168 17.2442 98.7244 15.1122 101.584 15.1122C104.217 15.1122 104.744 17.2693 104.744 17.2693V15.363H107.528V24.1921H108.983V24.167ZM104.794 20.9564C104.794 18.8495 103.791 17.5452 102.111 17.5452C100.505 17.5452 99.2762 18.7241 99.2762 20.9314C99.2762 23.1386 100.305 24.3175 101.985 24.3175C103.716 24.3426 104.794 23.2139 104.794 20.9564ZM114.677 10.8984V26.5248H111.868V12.5789H110.137V10.2462H114C114.376 10.2211 114.677 10.5221 114.677 10.8984ZM119.693 31.6667H116.909V29.334H118.966C119.693 29.334 120.045 29.1083 120.295 28.431L121.123 26.3241L116.834 15.363H119.944L122.553 23.2389L125.262 15.363H128.372L122.879 29.4845C122.277 30.9894 121.324 31.6667 119.693 31.6667ZM129.902 25.7974V23.0885C130.278 23.3393 131.808 24.3426 133.539 24.3426C134.843 24.3426 135.445 23.9663 135.445 23.2389C135.445 21.0317 129.751 22.6621 129.751 18.4733C129.751 16.567 131.357 15.1122 134.316 15.1122C135.947 15.1122 137.101 15.5386 137.552 15.8145V18.4984C137 18.1472 135.872 17.4198 134.367 17.4198C133.037 17.4198 132.561 17.8211 132.561 18.4482C132.561 20.2541 138.229 19 138.229 23.1135C138.229 25.3459 136.373 26.7505 133.664 26.7505C131.883 26.7505 130.429 26.1485 129.902 25.7974ZM144.876 15.8145V26.5248H142.092V17.6957H140.06V15.363H144.45C144.701 15.338 144.901 15.5637 144.876 15.8145ZM144.801 13.0304H141.791V10.2211H144.801V13.0304ZM147.861 25.7974V23.0885C148.237 23.3393 149.767 24.3426 151.498 24.3426C152.827 24.3426 153.404 23.9663 153.404 23.2389C153.404 21.0317 147.711 22.6621 147.711 18.4733C147.711 16.567 149.316 15.1122 152.276 15.1122C153.906 15.1122 155.06 15.5386 155.511 15.8145V18.4984C154.583 17.8211 153.454 17.47 152.326 17.4198C150.996 17.4198 150.52 17.8211 150.52 18.4482C150.52 20.2541 156.188 19 156.188 23.1135C156.188 25.3459 154.332 26.7505 151.623 26.7505C149.843 26.7505 148.388 26.1485 147.861 25.7974Z" fill="white"/>
</g>
<mask id="mask1_638_4814" style="mask-type:luminance" maskUnits="userSpaceOnUse" x="0" y="6" width="157" height="26">
<path d="M156.264 6.33325H0V31.6415H156.264V6.33325Z" fill="white"/>
</mask>
<g mask="url(#mask1_638_4814)">
<path d="M12.6418 6.33325C12.9177 6.33325 13.2438 6.35834 13.2438 6.35834C12.2907 7.48705 11.7138 8.91675 11.6134 10.3966C7.92631 10.9986 5.09198 13.9333 4.56525 17.6455C2.93489 17.821 1.07878 18.5735 0.000234356 19.6521C-0.250591 12.3029 5.39297 6.33325 12.6418 6.33325ZM14.4728 28.4059C14.1468 28.456 13.7956 28.4811 13.4695 28.4811C12.8926 28.4811 12.2907 28.4309 11.7138 28.3306C11.2623 29.4092 10.6603 30.4375 9.93291 31.3656C5.29264 30.3372 1.6306 26.8257 0.426636 22.2356C1.58043 20.8811 4.2141 20.1035 5.84446 20.1035C9.33093 20.1035 11.187 21.9597 11.8392 24.8441C9.73225 24.2672 8.47812 23.0884 7.67548 21.3577C7.19891 21.1821 6.69726 21.1068 6.17053 21.1068C5.71905 21.1068 5.24248 21.1821 4.81607 21.3326C5.74413 24.8692 9.15535 27.5029 13.3441 27.5029C17.1817 27.5029 18.8372 25.5465 18.8372 25.5465V22.5366C18.8372 22.5366 16.956 24.493 14.5983 24.8943C14.0464 21.1319 11.0867 18.1722 7.32433 17.6455C7.92631 14.6606 10.2088 12.9801 13.319 12.9801C16.4293 12.9801 18.9124 15.2375 18.9124 15.2375V12.2778C18.9124 12.2778 17.3072 10.7729 14.4478 10.4719C14.523 9.16758 15.3758 7.51213 16.3039 6.91015C20.1917 8.11411 23.9289 11.3999 25.0075 16.1907C25.0075 16.1907 23.3019 17.8963 20.0913 17.8963C17.4577 17.8963 15.7771 16.5669 14.8491 14.2593C14.3474 14.0837 13.8458 14.0085 13.319 14.0085C12.8425 14.0085 12.3408 14.0837 11.8893 14.2593C12.9177 17.9715 16.2035 20.4547 19.8405 20.4547C23.4022 20.4547 25.3336 18.8243 25.3336 18.8243C25.3336 26.2488 19.6649 31.5412 12.9428 31.6917C13.6953 30.889 14.2973 29.2336 14.4728 28.4059Z" fill="white"/>
</g>
</g>
</g>
<defs>
<clipPath id="clip0_638_4814">
<rect width="156.433" height="38" fill="white"/>
</clipPath>
<clipPath id="clip1_638_4814">
<rect width="156.264" height="25.3333" fill="white" transform="translate(0 6.33325)"/>
</clipPath>
</defs>
</svg>
