<svg width="100" height="38" viewBox="0 0 100 38" fill="none" xmlns="http://www.w3.org/2000/svg">
<g clip-path="url(#clip0_638_4826)">
<g clip-path="url(#clip1_638_4826)">
<mask id="mask0_638_4826" style="mask-type:luminance" maskUnits="userSpaceOnUse" x="0" y="0" width="100" height="31">
<path d="M99.6697 0H0.236328V30.4H99.6697V0Z" fill="white"/>
</mask>
<g mask="url(#mask0_638_4826)">
<path d="M26.4615 28.2572C26.4615 28.7034 26.257 28.9107 25.8323 28.9107H25.5177C25.4287 28.9248 25.3376 28.9177 25.2519 28.8898C25.1662 28.8618 25.0884 28.814 25.0248 28.7502C24.9613 28.6864 24.9137 28.6085 24.8862 28.5228C24.8587 28.4371 24.8519 28.3461 24.8665 28.2572V21.2448C24.8518 21.156 24.8585 21.0651 24.886 20.9795C24.9135 20.8939 24.9611 20.816 25.0247 20.7524C25.0884 20.6888 25.1664 20.6413 25.2521 20.6139C25.3378 20.5864 25.4289 20.5797 25.5177 20.5944H25.804C26.235 20.5944 26.4332 20.7986 26.4332 21.2448V23.4189H28.1038V21.1474C28.1038 19.7681 27.4337 19.1021 26.0525 19.1021H25.222C23.8409 19.1021 23.1582 19.7838 23.1582 21.1631V28.3389C23.1582 29.7182 23.8409 30.3999 25.222 30.3999H26.0651C27.4462 30.3999 28.1321 29.7182 28.1321 28.3389V25.7627H26.4615V28.2572Z" fill="white"/>
<path d="M36.7313 25.417H38.7322V23.8776H36.7313V20.7358H38.8108V19.1963H35.0293V30.3057H38.8423V28.7662H36.7313V25.417Z" fill="white"/>
<path d="M41.7625 19.1807L40.1895 30.3058H41.7625L41.9701 28.5589H43.7319L43.9552 30.3058H45.6384L44.0339 19.1807H41.7625ZM42.1431 27.0351L42.8447 21.4805L43.5274 27.0351H42.1431Z" fill="white"/>
<path d="M51.0136 25.0683C51.6428 24.8138 51.9826 24.3394 51.9826 23.3529V21.2604C51.9826 19.8781 51.2999 19.1963 49.9156 19.1963H47.1094V30.3057H48.8114V25.8475H49.5727C50.0666 25.8475 50.29 26.0674 50.29 26.5607V30.3057H51.9889V26.5355C51.9889 25.6935 51.7026 25.2788 51.0042 25.0746M50.2743 23.6953C50.2743 24.154 50.0509 24.3771 49.5727 24.3771H48.8114V20.7044H49.6388C49.7242 20.6923 49.8113 20.7003 49.8931 20.7276C49.975 20.7549 50.0493 20.8008 50.1104 20.8618C50.1714 20.9227 50.2174 20.997 50.2447 21.0787C50.2721 21.1604 50.28 21.2474 50.268 21.3327L50.2743 23.6953Z" fill="white"/>
<path d="M54.9254 28.1158C54.9394 28.2044 54.9322 28.2951 54.9044 28.3804C54.8766 28.4657 54.8291 28.5432 54.7656 28.6066C54.702 28.67 54.6244 28.7175 54.539 28.7453C54.4536 28.773 54.3629 28.7802 54.2741 28.7662H53.5254V30.3057H54.5604C55.9415 30.3057 56.6242 29.6239 56.6242 28.2415V19.1963H54.9254V28.1158Z" fill="white"/>
<path d="M61.6811 28.2572C61.6811 28.7034 61.4734 28.9107 61.0518 28.9107H60.7813C60.6923 28.9248 60.6012 28.9176 60.5155 28.8897C60.4298 28.8618 60.352 28.814 60.2884 28.7502C60.2248 28.6864 60.1773 28.6085 60.1498 28.5228C60.1223 28.4371 60.1155 28.346 60.1301 28.2572V19.1963H58.4375V28.3389C58.4375 29.7182 59.1202 30.3999 60.5044 30.3999H61.3318C62.7129 30.3999 63.3956 29.7182 63.3956 28.3389V19.1963H61.6968L61.6811 28.2572Z" fill="white"/>
<path d="M75.1771 28.2572C75.1771 28.7034 74.9726 28.9107 74.5479 28.9107H74.2333C74.1443 28.9248 74.0532 28.9177 73.9675 28.8898C73.8818 28.8618 73.804 28.814 73.7404 28.7502C73.6769 28.6864 73.6294 28.6085 73.6018 28.5228C73.5743 28.4371 73.5675 28.3461 73.5821 28.2572V21.2448C73.5674 21.156 73.5741 21.0651 73.6016 20.9795C73.6291 20.8939 73.6767 20.816 73.7403 20.7524C73.804 20.6888 73.882 20.6413 73.9677 20.6139C74.0534 20.5864 74.1445 20.5797 74.2333 20.5944H74.5196C74.9506 20.5944 75.1488 20.7986 75.1488 21.2448V23.4189H76.8194V21.1474C76.8194 19.7681 76.1524 19.1021 74.7682 19.1021H73.9407C72.5596 19.1021 71.877 19.7838 71.877 21.1631V28.3389C71.877 29.7182 72.5596 30.3999 73.9407 30.3999H74.7965C76.1807 30.3999 76.8634 29.7182 76.8634 28.3389V25.7627H75.1929L75.1771 28.2572Z" fill="white"/>
<path d="M78.1191 20.7358H79.645V30.3057H81.3438V20.7358H82.8728V19.1963H78.1191V20.7358Z" fill="white"/>
<path d="M86.0465 19.1963H84.3477V30.3057H86.0465V19.1963Z" fill="white"/>
<path d="M90.8164 19.1021H89.8978C88.5167 19.1021 87.834 19.7838 87.834 21.1631V28.3389C87.834 29.7182 88.5167 30.3999 89.8978 30.3999H90.8038C92.1881 30.3999 92.8708 29.7182 92.8708 28.3389V21.1631C92.8708 19.7838 92.1881 19.1021 90.8038 19.1021M91.1688 28.2572C91.1688 28.7034 90.9643 28.9107 90.5396 28.9107H90.2124C90.1234 28.9248 90.0323 28.9177 89.9466 28.8898C89.8609 28.8618 89.7831 28.814 89.7195 28.7502C89.6559 28.6864 89.6084 28.6085 89.5809 28.5228C89.5534 28.4371 89.5466 28.3461 89.5612 28.2572V21.2448C89.5464 21.156 89.5531 21.0651 89.5806 20.9795C89.6082 20.8939 89.6557 20.816 89.7194 20.7524C89.7831 20.6888 89.861 20.6413 89.9467 20.6139C90.0325 20.5864 90.1235 20.5797 90.2124 20.5944H90.5616C90.9926 20.5944 91.1908 20.7986 91.1908 21.2448L91.1688 28.2572Z" fill="white"/>
<path d="M31.579 20.733L29.877 19.2532V30.306H33.454V28.7665H31.579V20.733Z" fill="white"/>
<path d="M68.6031 19.1899H70.1289V30.2962H68.2853L66.555 22.8061L66.5707 30.2962H65.0449V19.1899H67.0301L68.6188 26.0925L68.6031 19.1899Z" fill="white"/>
<path d="M98.1433 19.1899H99.6692V30.2962H97.8256L96.0921 22.8061L96.1078 30.2962H94.582V19.1899H96.5703L98.1591 26.0925L98.1433 19.1899Z" fill="white"/>
<path d="M14.7779 16.2273H12.5254L14.7748 23.8273L17.8044 26.4695L14.7779 16.2273Z" fill="white"/>
<path d="M11.8937 14.0848L14.1462 14.088L11.8968 6.48481L8.86719 3.8457L11.8937 14.0848Z" fill="white"/>
<path d="M0.236328 14.0847L2.70596 16.2243L26.4301 16.2274L23.9637 14.0879L0.236328 14.0847Z" fill="white"/>
<path d="M20.6178 14.0878H23.9652L7.72852 0L8.86738 3.84241L20.6178 14.0878Z" fill="white"/>
<path d="M6.0544 16.2241H2.70703L18.9437 30.3119L17.8048 26.4695L6.0544 16.2241Z" fill="white"/>
</g>
</g>
</g>
<defs>
<clipPath id="clip0_638_4826">
<rect width="99.56" height="38" fill="white" transform="translate(0.234375)"/>
</clipPath>
<clipPath id="clip1_638_4826">
<rect width="99.4333" height="30.4" fill="white" transform="translate(0.236328)"/>
</clipPath>
</defs>
</svg>
