<svg width="86" height="38" viewBox="0 0 86 38" fill="none" xmlns="http://www.w3.org/2000/svg">
<path fill-rule="evenodd" clip-rule="evenodd" d="M67.5201 12.3399C67.5201 11.0507 66.1743 10.6674 65.4265 10.6674H63.8483V14.1083H65.4265C66.4148 14.1083 67.5201 13.6379 67.5201 12.3399ZM70.2738 14.5759C69.6765 15.4241 68.7979 16.0064 67.811 16.2076L72.4792 21.8002H67.5947L63.8483 16.3557V21.8698H60.0346V7.87114L63.8483 7.87987L64.0391 7.87114H66.955C67.9602 7.84751 68.9368 8.22037 69.6926 8.91599C70.4477 9.61151 70.9266 10.5791 71.0347 11.6273C71.1422 12.6754 70.8703 13.7277 70.2738 14.5759ZM30.9591 7.90596L37.2976 21.8698H40.4789L46.8182 7.90596L42.5308 7.87114L38.8839 16.3645L35.2457 7.87114L30.9591 7.90596ZM51.0879 10.9374V13.2371H55.1998V16.3035H51.0879V18.8645H57.6172V21.9308H47.6566V21.8698H47.574V7.87114H57.6172V10.9374H51.0879ZM21.4817 21.9452C19.9597 21.1997 18.7236 19.9357 17.9743 18.3593L21.5548 14.1693L21.5467 15.3278C21.5467 16.5822 22.535 18.5248 24.728 19.3175C26.913 18.5248 27.9021 16.5822 27.9021 15.3278C27.9021 14.9013 27.8999 14.3549 27.8984 13.8196C27.8947 12.7803 27.8911 11.7824 27.9021 11.7824C25.8172 11.7661 24.8538 10.9401 24.7397 10.8423L24.728 10.8329C24.72 10.8242 23.7317 11.765 21.5467 11.7824L21.5548 12.2615L15.8639 18.9081L14.7265 20.2235C14.0335 20.9972 13.1972 21.6137 12.2681 22.0347C11.3398 22.4558 10.3383 22.6725 9.3266 22.6712C5.21399 22.6712 1.88282 19.1607 1.88282 14.8313C1.88062 12.7581 2.66353 10.7688 4.05901 9.30042C5.45449 7.83205 7.34924 7.00465 9.3266 7C10.342 6.99915 11.3471 7.21764 12.2791 7.64173C13.2111 8.06592 14.0496 8.68658 14.7426 9.46522L12.2923 12.2093C11.6687 11.3642 10.7133 10.8329 9.56709 10.8329C9.30247 10.8335 9.03858 10.8632 8.78054 10.921C8.55247 10.9721 8.32805 11.0453 8.11167 11.1399C7.65041 11.3415 7.23155 11.6363 6.87921 12.0076C6.52686 12.3789 6.24762 12.8193 6.05683 13.3038C5.86677 13.7884 5.76955 14.3073 5.77101 14.8313C5.76882 15.3556 5.86531 15.8751 6.05464 16.3601C6.2447 16.8451 6.52394 17.286 6.87701 17.6575C7.22936 18.029 7.64895 18.3238 8.11021 18.525C8.39749 18.6499 8.6972 18.7373 9.00276 18.7855C9.18917 18.8149 9.37777 18.8297 9.56709 18.8297C10.0634 18.838 10.5554 18.7315 11.0072 18.5176C11.4597 18.3039 11.8617 17.9881 12.1841 17.5927L17.2601 11.6691L19.3786 9.30848L19.3866 9.31712C20.7697 7.84875 22.652 7.01547 24.6206 7C26.5906 7.02723 28.473 7.86184 29.8641 9.32537C31.2544 10.7889 32.0446 12.7651 32.0636 14.8313C32.0746 16.5926 31.5161 18.306 30.4796 19.6922C29.443 21.0783 27.9898 22.0555 26.356 22.4647C24.7222 22.8738 23.0036 22.6907 21.4817 21.9452ZM79.325 21.7305V15.2494L84.8828 7.87114H80.2139L77.439 11.5733L74.6729 7.87114H70.004L75.4456 15.1013V21.7305H79.325ZM6.95011 30.5463C7.34047 30.2545 7.53126 29.8795 7.53126 29.4211C7.53126 29.096 7.44792 28.8376 7.27395 28.6376C7.10801 28.4376 6.84266 28.2793 6.49397 28.1626C6.38724 28.1283 6.28636 28.097 6.18841 28.0702C6.1197 28.0513 6.05318 28.0347 5.98812 28.0208L5.49908 27.9208C5.24176 27.8625 5.05975 27.8041 4.96837 27.7374C4.877 27.6707 4.82729 27.5791 4.82729 27.454C4.82729 27.4136 4.83533 27.3736 4.85068 27.3364C4.86676 27.2991 4.88942 27.2654 4.91866 27.2374C4.97276 27.1709 5.04439 27.1217 5.12627 27.0957C5.21691 27.0541 5.30829 27.029 5.4077 27.0123L5.70668 26.9957C6.25493 26.9965 6.7871 27.1846 7.2162 27.5291H7.34851V26.4539C6.81415 26.2469 6.24616 26.1395 5.67305 26.1372C5.146 26.1176 4.62553 26.2601 4.18035 26.5456C4.03415 26.6464 3.90988 26.7755 3.81412 26.9255C3.71836 27.0755 3.6533 27.2432 3.62333 27.4188C3.59263 27.5944 3.59774 27.7742 3.63795 27.9479C3.67815 28.1214 3.75272 28.2851 3.85725 28.4293C4.00491 28.5933 4.18181 28.7269 4.37772 28.8238C4.48152 28.8752 4.59044 28.9162 4.70302 28.946C4.86895 29.0043 5.05097 29.046 5.24176 29.0877C5.4289 29.12 5.61384 29.1589 5.79806 29.2044C5.96326 29.246 6.08826 29.296 6.17087 29.3711C6.2118 29.4021 6.24543 29.4424 6.26882 29.4887C6.29148 29.5349 6.30391 29.5861 6.30391 29.6378C6.3061 29.6835 6.29952 29.7293 6.28417 29.7723C6.26809 29.8154 6.24397 29.8547 6.21253 29.8879C6.17306 29.9272 6.12628 29.9627 6.07218 29.9919C6.04587 30.0061 6.01809 30.0187 5.98812 30.0295C5.91355 30.0628 5.81414 30.0795 5.69791 30.0962L5.41647 30.1129C4.79439 30.1022 4.19424 29.8853 3.70813 29.4961H3.57508V30.6129C4.14453 30.855 4.75711 30.977 5.37481 30.9713C6.03782 30.9713 6.56049 30.8297 6.95011 30.5463ZM13.8588 30.0295C13.9999 29.9712 14.1242 29.8795 14.2236 29.7545C14.3449 29.6056 14.4326 29.4322 14.4809 29.246C14.5386 29.0544 14.5723 28.8293 14.5723 28.5626C14.5723 28.2875 14.5386 28.0459 14.4728 27.8541C14.4063 27.6541 14.323 27.4958 14.2236 27.3791C14.1841 27.3304 14.1424 27.2884 14.0993 27.2518C14.024 27.1881 13.9436 27.1411 13.8588 27.1041C13.5817 26.995 13.2747 26.992 12.9962 27.0957C12.8639 27.1541 12.7389 27.2457 12.6314 27.3707C12.5233 27.4874 12.4407 27.6458 12.3741 27.8541C12.3076 28.0625 12.2747 28.2959 12.2747 28.5709C12.2696 28.8109 12.3032 29.0503 12.3741 29.2794C12.4246 29.453 12.5094 29.6145 12.6234 29.7545C12.7214 29.8742 12.8464 29.9685 12.9882 30.0295C13.1256 30.0898 13.2733 30.1211 13.4231 30.1211C13.573 30.1211 13.7214 30.0898 13.8588 30.0295ZM15.1688 26.7873C15.592 27.229 15.8076 27.8208 15.8076 28.5709C15.8076 29.3127 15.592 29.9045 15.1775 30.3378C14.7543 30.7796 14.1658 30.9964 13.4195 30.9964C13.0978 31.0144 12.7769 30.9652 12.4757 30.8518C12.32 30.7933 12.1716 30.7184 12.0328 30.6285C11.9026 30.5443 11.7806 30.447 11.6695 30.3378C11.2462 29.9045 11.0393 29.3127 11.0393 28.5709C11.0218 28.2465 11.0686 27.9219 11.1768 27.6157C11.2849 27.3096 11.4523 27.0281 11.6695 26.7873C12.092 26.3539 12.6812 26.1372 13.4195 26.1372C13.7396 26.1191 14.0606 26.1675 14.3617 26.2793C14.6622 26.3912 14.9378 26.564 15.1688 26.7873ZM19.3325 30.8046H22.6666V29.9045H20.5263V26.1372H19.3325V30.8046ZM28.9861 30.8046L30.6777 26.1372H29.4584L28.3392 29.4127L27.2193 26.1372H25.9671L27.6506 30.8046H28.9861ZM34.2603 30.8046H37.6024V29.9045H35.446V28.746H37.4533V27.8458H35.446V27.0374H37.6024V26.1372H34.2603V30.8046ZM47.0572 27.0374H49.1881V26.1372H45.8708V30.8046H47.0572V28.8126H49.0309V27.9041H47.0572V27.0374ZM55.0931 27.693C55.0982 27.6528 55.1011 27.6092 55.1011 27.5624C55.1011 27.4458 55.0763 27.3457 55.0266 27.2624C54.9769 27.179 54.9023 27.1124 54.7861 27.0707C54.7422 27.0531 54.694 27.0378 54.6421 27.0261C54.596 27.0156 54.547 27.0079 54.4959 27.004L54.123 26.9957H53.6918V28.2542H54.0565C54.2473 28.2542 54.4045 28.2459 54.5375 28.2209C54.5894 28.216 54.6406 28.2046 54.6896 28.1873C54.74 28.1694 54.7883 28.145 54.8336 28.1146C54.922 28.0549 54.9937 27.974 55.0434 27.8792C55.0646 27.8304 55.0828 27.7676 55.0931 27.693ZM56.0967 28.2626C55.9388 28.4793 55.7071 28.6627 55.4162 28.8043L56.9593 30.8046H55.4995L54.2473 29.096H53.6918V30.8046H52.5053V26.1372H54.5046C54.74 26.1342 54.9761 26.1509 55.2093 26.1872C55.4059 26.216 55.5945 26.2841 55.7649 26.3873C55.9388 26.4956 56.0799 26.6289 56.1793 26.7956C56.2788 26.9623 56.3285 27.1707 56.3285 27.4207C56.3285 27.5694 56.3146 27.707 56.2853 27.8329C56.2481 27.9963 56.1852 28.1401 56.0967 28.2626ZM62.3497 27.3291L61.7773 29.0043H62.9221L62.3497 27.3291ZM61.6779 26.1372H63.0544L64.7628 30.8046H63.5274L63.2043 29.8628H61.4952L61.1721 30.8046H59.9696L61.6779 26.1372ZM72.2862 29.7588C72.3462 29.5663 72.3761 29.351 72.3761 29.1127V26.1372H71.1824V29.046C71.1824 29.3878 71.1071 29.6294 70.9748 29.7795C70.8337 29.9379 70.6181 30.0128 70.3198 30.0128C70.0208 30.0128 69.7972 29.9295 69.6641 29.7712C69.5318 29.6128 69.4653 29.3711 69.4653 29.046V26.1372H68.2628V29.121C68.2628 29.5423 68.3556 29.8877 68.5428 30.1635C68.6115 30.2641 68.6919 30.3555 68.7855 30.4379C69.1334 30.7463 69.6393 30.9046 70.3198 30.9046C70.9996 30.9046 71.5055 30.7463 71.8542 30.4379C72.0581 30.2573 72.2021 30.0309 72.2862 29.7588ZM78.7124 29.246C78.8119 29.0377 78.8616 28.771 78.8616 28.4626C78.8616 28.1626 78.8119 27.8958 78.6956 27.6791C78.5882 27.4624 78.4142 27.2874 78.1737 27.1624C78.0487 27.1041 77.9244 27.0623 77.8001 27.0374C77.6671 27.0207 77.4771 27.0123 77.2197 27.0123H76.9208V29.9295H77.2197C77.5019 29.9295 77.7088 29.9128 77.8418 29.8879C77.9741 29.8628 78.1072 29.8128 78.2314 29.7461C78.4383 29.6325 78.6064 29.458 78.7124 29.246ZM79.6562 27.0327C79.9712 27.446 80.1284 27.9594 80.0977 28.4793C80.1035 28.8672 80.0122 29.2505 79.8309 29.593C79.6496 29.9356 79.3842 30.2263 79.0604 30.4379C78.8287 30.5712 78.5794 30.6712 78.314 30.7213C78.0487 30.7796 77.7256 30.8046 77.3608 30.8046H75.727V26.1372H77.4018C77.7307 26.1335 78.0582 26.1642 78.3806 26.2288C78.8879 26.3342 79.3411 26.6194 79.6562 27.0327Z" fill="white"/>
</svg>
