<svg width="111" height="46" viewBox="0 0 111 46" fill="none" xmlns="http://www.w3.org/2000/svg">
<g clip-path="url(#clip0_1_759)">
<path fill-rule="evenodd" clip-rule="evenodd" d="M66.4449 17.3878C64.8621 17.3878 63.5983 17.8254 62.2793 18.4976C62.2916 14.642 62.3406 11.281 62.4265 10.0063L54.7578 11.5346V12.2512L55.5001 12.3527C56.5676 12.5049 56.9787 13.1517 57.1075 14.6293C57.3468 17.4576 57.3161 32.6327 57.1075 35.0615C59.1689 35.5371 61.4081 35.9112 63.6474 35.9112C69.7333 35.9112 73.3958 32.0239 73.3958 25.8727C73.402 20.9263 70.4265 17.3878 66.4449 17.3878ZM63.7762 34.6429C63.3406 34.6429 62.7824 34.5732 62.4695 34.5098C62.3468 32.8039 62.2732 25.7839 62.2793 19.6517C62.9848 19.4044 63.4572 19.3473 64.0707 19.3473C66.5922 19.3473 68.0032 22.3532 68.0093 26.1454C68.0155 30.9839 66.267 34.6429 63.7762 34.6429Z" fill="white"/>
<path fill-rule="evenodd" clip-rule="evenodd" d="M25.8236 10.5645H5.66406V11.5664L6.73768 11.7186C8.27756 11.9532 8.86652 12.9362 9.04443 15.181C9.39412 19.4806 9.34504 27.1727 9.04443 30.8698C8.86652 33.1147 8.27142 34.0976 6.73768 34.3323L5.66406 34.4845V35.4864H18.6211V34.4781L17.2592 34.3259C15.7193 34.0913 15.1303 33.1084 14.9524 30.8635C14.8297 29.3352 14.75 26.7606 14.7193 23.7357L17.388 23.8245C19.1733 23.8879 19.9156 25.2513 20.345 27.2742H21.345V18.8401H20.345C19.9156 20.863 19.1671 22.2264 17.388 22.2898L14.707 22.3786C14.6886 18.3962 14.7622 14.5723 14.9463 12.2703H18.9279C22.0383 12.2703 23.6947 14.3123 24.7377 17.9142L25.9401 17.5718L25.8236 10.5645Z" fill="white"/>
<path fill-rule="evenodd" clip-rule="evenodd" d="M32.3823 17.1851C38.1124 17.1851 40.959 21.1992 40.959 26.4943C40.959 31.6626 37.7443 35.8987 32.0142 35.8987C26.2841 35.8987 23.4375 31.8846 23.4375 26.5894C23.4314 21.4212 26.6461 17.1851 32.3823 17.1851ZM32.0817 18.3329C29.5479 18.3329 28.8424 21.8714 28.8424 26.5451C28.8424 31.0919 29.9651 34.7573 32.3148 34.7573C34.8486 34.7573 35.5602 31.2187 35.5602 26.5451C35.5541 21.9982 34.4314 18.3329 32.0817 18.3329Z" fill="white"/>
<path fill-rule="evenodd" clip-rule="evenodd" d="M74.8047 26.7099C74.7986 21.808 77.7924 17.1978 83.7004 17.1978C88.5102 17.1978 90.7986 20.8821 90.8292 25.7017H80.1053C79.9887 30.0773 82.1298 33.286 86.228 33.286C88.0317 33.286 89.0071 32.8231 90.093 31.9607L90.5961 32.5821C89.4059 34.288 86.9213 35.9051 83.6329 35.9051C78.4611 35.9051 74.8108 32.1192 74.8047 26.7099ZM80.1421 24.4524L85.5164 24.3319C85.5409 21.8714 85.1605 18.3582 83.228 18.3582C81.2832 18.3582 80.1912 21.6875 80.1421 24.4524Z" fill="white"/>
<path fill-rule="evenodd" clip-rule="evenodd" d="M104.417 18.149C103.141 17.5465 101.239 17.1851 99.2392 17.1851C94.9263 17.1851 92.3128 19.7977 92.3128 22.848C92.3128 25.987 94.2822 27.2173 96.9938 28.2192C99.9202 29.2973 100.693 30.1407 100.693 31.5358C100.693 32.9753 99.6687 34.3197 97.8404 34.3197C95.6748 34.3197 94.0429 33.007 92.7914 29.3797L91.9141 29.6143L92.0674 34.7953C93.4969 35.3914 95.9325 35.8924 98.1226 35.8924C102.693 35.8924 105.466 33.5904 105.466 29.849C105.466 27.3377 104.282 25.9616 101.288 24.7568C98.049 23.4631 96.9263 22.6451 96.9263 21.0977C96.9263 19.5377 97.9263 18.4597 99.3128 18.4597C101.393 18.4597 102.81 19.7914 103.748 22.9241L104.626 22.6831L104.417 18.149Z" fill="white"/>
<path fill-rule="evenodd" clip-rule="evenodd" d="M55.9231 17.6857C53.9844 16.4872 50.463 17.0579 48.6777 21.3004L48.7636 17.1721L41.1194 18.7004V19.417L41.8617 19.5121C42.9292 19.6643 43.3403 20.3111 43.4691 21.7887C43.7084 24.617 43.6777 29.6711 43.4691 32.0999C43.3464 33.5774 42.9354 34.2243 41.8617 34.3765L41.1133 34.4779V35.4799H51.7575V34.4779L50.3709 34.3765C49.3035 34.2243 48.8924 33.5774 48.7636 32.0999C48.5734 29.8677 48.5305 25.4223 48.7084 22.5243C49.2237 21.6491 51.7206 20.9452 54.0458 22.556L55.9231 17.6857Z" fill="white"/>
<path d="M104.137 15.7326C104.039 15.7897 103.959 15.8023 103.843 15.8023C103.64 15.8023 103.53 15.6819 103.53 15.4726C103.53 15.2063 103.659 15.0287 104.137 14.9526V15.7326ZM105.456 16.4936V16.0877C105.235 16.0497 105.193 16.018 105.193 15.796V14.2867C105.193 13.5004 104.849 13.196 104.015 13.196C103.53 13.196 103.119 13.3419 102.64 13.6019L102.935 14.2994C103.352 14.0711 103.616 14.0014 103.818 14.0014C104.027 14.0014 104.137 14.1219 104.137 14.3058V14.5531C102.99 14.6292 102.499 14.9843 102.499 15.6438C102.499 16.2019 102.867 16.5063 103.303 16.5063C103.634 16.5063 103.886 16.3604 104.156 16.075H104.186C104.297 16.3414 104.665 16.4936 105.456 16.4936ZM102.174 13.2277H101.021V16.4682H102.174V13.2277ZM100.996 12.1053H102.205V12.9233H100.996V12.1053ZM100.61 16.4619V14.0648C100.61 13.456 100.358 13.1833 99.9287 13.1833C99.5667 13.1833 99.3091 13.3609 98.9594 13.8238H98.9348V13.177L97.7815 13.3228V16.4682H98.9348V14.1092C99.033 14.0521 99.1128 14.0331 99.2048 14.0331C99.3827 14.0331 99.4563 14.1409 99.4563 14.3565V16.4745H100.61V16.4619ZM96.4686 12.9297L95.9901 12.5175L95.5115 12.9297H94.9839L95.5851 11.9087H96.4011L97.0085 12.9297H96.4686ZM94.3029 16.4619V14.0648C94.3029 13.456 94.0514 13.1833 93.622 13.1833C93.26 13.1833 93.0269 13.3609 92.6772 13.8238H92.6342C92.5729 13.3863 92.3336 13.1833 91.9716 13.1833C91.6097 13.1833 91.3704 13.3609 91.0207 13.8238H90.9962V13.177L89.8428 13.3228V16.4682H90.9962V14.1028C91.0821 14.0521 91.1618 14.0331 91.2477 14.0331C91.4256 14.0331 91.4993 14.1409 91.4993 14.3565V16.4745H92.6465V14.1092C92.7324 14.0584 92.8121 14.0394 92.898 14.0394C93.0759 14.0394 93.1496 14.1472 93.1496 14.3628V16.4809H94.3029V16.4619ZM88.3581 14.9463C88.3581 15.6184 88.2784 15.8087 88.0698 15.8087C87.8612 15.8087 87.7815 15.6248 87.7815 14.9463V14.7433C87.7815 14.0711 87.8612 13.8809 88.0698 13.8809C88.2784 13.8809 88.3581 14.0648 88.3581 14.7433V14.9463ZM89.4993 14.9399V14.7497C89.4993 13.7477 88.9778 13.1643 88.0698 13.1643C87.1618 13.1643 86.6404 13.7414 86.6404 14.7497V14.9399C86.6404 15.9419 87.1618 16.5253 88.0698 16.5253C88.9778 16.5253 89.4993 15.9419 89.4993 14.9399ZM84.6097 13.0565H84.3336V14.0141H84.6097C84.9348 14.0141 85.0943 13.8238 85.0943 13.5131C85.0943 13.2087 84.9226 13.0565 84.6097 13.0565ZM85.6404 14.6545L86.5238 16.4682H85.2293L84.4993 14.8575H84.3888V16.4682H83.168V12.1623H84.7692C85.7017 12.1623 86.3091 12.5809 86.3091 13.4941C86.3091 14.0394 86.0759 14.4389 85.6404 14.6545ZM96.2109 15.7326C96.1066 15.7897 96.033 15.8023 95.9164 15.8023C95.714 15.8023 95.6035 15.6819 95.6035 15.4726C95.6035 15.2063 95.7324 15.0287 96.2109 14.9526V15.7326ZM97.5299 16.4936V16.0877C97.3091 16.0497 97.2661 16.018 97.2661 15.796V14.2867C97.2661 13.5004 96.9226 13.196 96.0882 13.196C95.6036 13.196 95.1925 13.3419 94.714 13.6019L95.0085 14.2994C95.4256 14.0711 95.6894 14.0014 95.8919 14.0014C96.1005 14.0014 96.2109 14.1219 96.2109 14.3058V14.5531C95.0637 14.6292 94.5729 14.9843 94.5729 15.6438C94.5729 16.2019 94.941 16.5063 95.3766 16.5063C95.7078 16.5063 95.9594 16.3604 96.2293 16.075H96.26C96.3766 16.3414 96.7446 16.4936 97.5299 16.4936Z" fill="white"/>
</g>
<defs>
<clipPath id="clip0_1_759">
<rect width="100" height="26" fill="white" transform="translate(5.63281 10)"/>
</clipPath>
</defs>
</svg>
