<svg width="124" height="60" viewBox="0 0 124 60" fill="none" xmlns="http://www.w3.org/2000/svg">
<g clip-path="url(#clip0_710_5283)">
<g clip-path="url(#clip1_710_5283)">
<path d="M66.1581 18.9297C60.4889 18.9297 54.7123 22.0811 54.7123 29.0513C54.7123 33.0306 56.7001 35.3808 58.5546 36.6628C60.7847 38.2384 63.5789 38.7461 66.3463 38.7461C72.4452 38.7461 77.7653 35.5144 77.7653 29.0782C77.7653 22.8291 72.7943 18.9566 66.1581 18.9297ZM66.3463 36.4225C63.6057 36.4225 60.8383 35.7546 59.0649 33.6985C57.775 32.2565 57.3986 30.3603 57.3986 28.8914C57.3986 23.3097 61.9126 21.3342 65.8625 21.2267C71.048 21.0929 75.0517 23.844 75.0517 28.8116C75.0517 32.0159 73.3584 36.4225 66.3463 36.4225ZM101.383 24.9385C101.383 22.6687 100.308 21.4404 99.6899 20.9063C98.0506 19.4372 96.0355 19.4108 94.3698 19.3842H81.4724V38.2384H84.1593V30.7073H93.3219L99.7434 38.2384H103.263L96.2775 30.2797C97.5406 30.0665 101.383 29.4521 101.383 24.9385ZM84.133 28.4904V21.6538H94.558C95.794 21.6807 97.1637 21.6807 98.0239 23.0423C98.4003 23.6035 98.5882 24.3246 98.5882 25.0455C98.5882 25.7134 98.427 26.434 97.9435 27.0484C96.8681 28.4638 94.9877 28.4904 93.5101 28.4904H84.133ZM102.571 19.3842V21.6272H110.309V38.2384H112.996V21.6272H120.761V19.3842H102.571ZM27.8155 28.918C27.8155 25.7137 26.7941 24.004 26.2033 23.1493C23.1941 18.7432 17.4711 18.6895 15.3218 18.6895C12.366 18.6895 7.82545 19.0101 4.95043 22.2953C3.365 24.1107 2.58594 26.488 2.58594 28.8912C2.58594 32.7102 4.44041 35.434 6.912 36.9563C9.03473 38.3185 11.7751 38.8792 15.2145 38.8792C17.579 38.8792 18.7344 38.6658 20.2926 38.265L26.3917 41.3629L28.8098 36.7161L25.5318 35.1671C26.3109 34.1796 27.8155 32.3632 27.8155 28.918ZM15.2678 34.7131C12.0972 34.7131 9.65211 32.8172 9.65211 29.0245C9.65211 25.9806 11.5058 22.9359 15.241 22.909C18.7069 22.8555 20.8564 25.3393 20.8564 28.9981C20.8564 32.1761 19.0024 34.7131 15.2678 34.7131ZM32.3318 38.2397H34.9648V21.6553H51.5604V19.3853H32.3318V38.2397ZM39.9077 38.2397H42.5405V29.1488H51.5604V26.8784H39.9077V38.2397Z" fill="#007B6C"/>
<path d="M121.871 35.6263C121.871 37.0942 120.734 38.2385 119.243 38.2385C117.753 38.2385 116.615 37.0939 116.615 35.6263C116.615 34.1588 117.753 33.0142 119.243 33.0142C120.734 33.0142 121.871 34.1588 121.871 35.6263ZM117.025 35.6263C117.025 36.8764 117.964 37.8665 119.243 37.8665C120.508 37.8665 121.462 36.8764 121.462 35.6263C121.462 34.3763 120.508 33.3862 119.243 33.3862C117.964 33.3862 117.025 34.3763 117.025 35.6263ZM118.664 37.1358H118.29V34.1164H119.455C120.141 34.1164 120.445 34.4117 120.445 34.952C120.445 35.4858 120.098 35.7175 119.682 35.7948L120.586 37.1358H120.148L119.293 35.7948H118.664V37.1358ZM119.159 35.4788C119.618 35.4788 120.07 35.4646 120.07 34.952C120.07 34.5306 119.717 34.4324 119.349 34.4324H118.664V35.4788H119.159Z" fill="#007B6C"/>
</g>
</g>
<defs>
<clipPath id="clip0_710_5283">
<rect width="124" height="60" fill="white"/>
</clipPath>
<clipPath id="clip1_710_5283">
<rect width="119.576" height="22.9954" fill="white" transform="translate(2.35938 18.438)"/>
</clipPath>
</defs>
</svg>
