<svg width="126" height="60" viewBox="0 0 126 60" fill="none" xmlns="http://www.w3.org/2000/svg">
<g clip-path="url(#clip0_710_5303)">
<g clip-path="url(#clip1_710_5303)">
<path d="M22.6581 37.8622V30.4664C22.6581 29.0577 22.5873 26.8037 20.6026 26.8037C18.547 26.8037 18.1926 28.7055 18.1926 30.3959V37.8622H13.5145V30.3959C13.5145 28.9168 13.4436 26.8037 11.3881 26.8037C9.4034 26.8037 8.90723 28.7055 8.90723 30.3255V37.8622H4.1582V23.2114H8.83635V24.6906C9.89956 23.6341 11.3881 22.9297 12.8766 22.9297C14.5068 22.9297 16.0662 23.7045 16.9168 25.1837C18.1218 23.7045 20.1773 22.9297 22.0202 22.9297C25.2099 22.9297 27.4072 25.5358 27.4072 28.5646V37.8622H22.6581Z" fill="#2259A9"/>
<path d="M33.4321 21.6614C31.8018 21.6614 30.4551 20.3231 30.4551 18.6326C30.4551 17.0126 31.8018 15.6743 33.4321 15.6743C35.1332 15.6743 36.48 17.0126 36.48 18.6326C36.48 20.3231 35.1332 21.6614 33.4321 21.6614Z" fill="#EEDC42"/>
<path d="M54.909 37.8622H50.2309V32.2272C50.2309 30.255 49.6638 29.128 47.8918 29.128C46.0489 29.128 44.6313 30.8185 44.6313 32.8612V37.8622H39.9531V25.5358H44.6313V27.0854C45.8362 25.9584 47.3247 25.1836 49.0259 25.1836C53.2079 25.1836 54.909 27.5784 54.909 32.1568V37.8622Z" fill="#2259A9"/>
<path d="M60.9321 24.6199C59.3018 24.6199 57.9551 23.2816 57.9551 21.5911C57.9551 19.9711 59.3018 18.6328 60.9321 18.6328C62.6332 18.6328 63.98 19.9711 63.98 21.5911C63.9091 23.2816 62.6332 24.6199 60.9321 24.6199Z" fill="#ED5B28"/>
<path d="M63.2035 27.085H58.5254V37.8617H63.2035V27.085Z" fill="#2259A9"/>
<path d="M35.7699 24.127H31.0918V37.8621H35.7699V24.127Z" fill="#2259A9"/>
<path d="M76.7401 23C74.8972 23 72.2037 23.7044 71.4949 24.9018V23.4931H66.5332V46.0327H71.4949V36.3125C72.2037 37.5099 74.8972 38.2143 76.7401 38.2143C80.7094 38.2143 83.899 34.8333 83.899 30.6071C83.899 26.3809 80.7094 23 76.7401 23ZM76.0313 34.2698C73.9757 34.2698 72.4163 32.6498 72.4163 30.6071C72.4163 28.5645 74.0466 26.9444 76.0313 26.9444C78.0868 26.9444 79.7171 28.5645 79.7171 30.6071C79.7171 32.6498 78.0868 34.2698 76.0313 34.2698Z" fill="#2259A9"/>
<path d="M96.5145 27.9306C94.2463 26.8036 91.8363 28.1419 91.8363 30.8185V37.8621H87.1582V23.2113H91.8363V24.9722C92.8996 23.3522 94.5298 22.7887 96.7271 23.2113V27.9306H96.5145Z" fill="#2259A9"/>
<path d="M102.045 20.7459C100.415 20.7459 99.0684 19.4076 99.0684 17.7171C99.0684 16.0971 100.415 14.7588 102.045 14.7588C103.747 14.7588 105.093 16.0971 105.093 17.7171C105.093 19.478 103.747 20.7459 102.045 20.7459Z" fill="#0CA97E"/>
<path d="M104.385 23.2109H99.707V37.8617H104.385V23.2109Z" fill="#2259A9"/>
<path d="M112.395 23.2109L115.088 27.6484L117.853 23.2109H123.311L118.136 30.2546L123.736 37.8617H117.994L115.088 32.9312L112.253 37.8617H106.512L112.111 30.2546L106.937 23.2109H112.395Z" fill="#2259A9"/>
</g>
</g>
<defs>
<clipPath id="clip0_710_5303">
<rect width="120.64" height="32.24" fill="white" transform="translate(3.48047 14.5601)"/>
</clipPath>
<clipPath id="clip1_710_5303">
<rect width="119.576" height="31.2738" fill="white" transform="translate(4.16016 14.7588)"/>
</clipPath>
</defs>
</svg>
