<svg width="112" height="38" viewBox="0 0 112 38" fill="none" xmlns="http://www.w3.org/2000/svg">
<g clip-path="url(#clip0_638_4852)">
<mask id="mask0_638_4852" style="mask-type:luminance" maskUnits="userSpaceOnUse" x="1" y="8" width="110" height="22">
<path d="M110.332 8H1.33203V30H110.332V8Z" fill="white"/>
</mask>
<g mask="url(#mask0_638_4852)">
<path d="M101.026 20.4129L94.6934 9.35742H98.0604L102.495 17.1354L106.943 9.35742H110.31L103.953 20.4129V28.8213H101.026V20.4129Z" fill="white"/>
<path d="M87.5036 24.065H79.152L76.978 28.8196H73.8066L83.4602 8.01367L92.7732 28.8196H89.5506L87.5036 24.065ZM86.3035 21.2885L83.4095 14.6322L80.3772 21.2885H86.3035Z" fill="white"/>
<path d="M64.5405 20.9021V28.8076H61.6133V9.34326H64.9302C66.5553 9.34326 67.7821 9.45677 68.6111 9.68368C69.4482 9.91023 70.2107 10.3536 70.8227 10.9695C71.9367 12.0625 72.4937 13.4409 72.4937 15.1046C72.4937 16.8864 71.8991 18.2982 70.7099 19.3401C69.5207 20.382 67.9162 20.9026 65.8981 20.9021H64.5405ZM64.5405 18.1791H65.6337C68.3228 18.1791 69.6668 17.1413 69.6668 15.0656C69.6668 13.0569 68.2808 12.0526 65.5089 12.0526H64.5416L64.5405 18.1791Z" fill="white"/>
<path d="M52.0489 9.27905H55.2965L51.1611 16.2856L49.5898 13.5189L52.0489 9.27905Z" fill="white"/>
<path d="M44.5202 9.32959H41.1854L46.528 18.6306L40.4316 28.8128L43.7523 28.8108L48.1788 21.3552L52.4581 28.8214L55.7603 28.8108L44.5202 9.32959Z" fill="white"/>
<path d="M35.7767 9.33423H25.0625V28.8162H35.7767V26.053H27.9924V19.542H35.5505V16.7788H27.9924V12.0974H35.7767V9.33423Z" fill="white"/>
<path d="M4.26195 28.8071V15.1671L18.4218 29.9929V9.32471H15.4918V22.864L1.33203 8V28.8071H4.26195Z" fill="white"/>
<path d="M41.1854 9.32959L46.528 18.6306L40.4316 28.8128L43.7523 28.8108L48.1788 21.3552L52.4582 28.8214L55.7674 28.8128L44.5202 9.32959H41.1854Z" fill="white"/>
<path fill-rule="evenodd" clip-rule="evenodd" d="M78.1121 19.5312L73.8066 28.8212L76.978 28.8196L79.152 24.065H87.5036L89.5446 28.8212H92.7732L88.6181 19.5312H85.5356L86.3035 21.2885H80.3772L81.18 19.5312H78.1121Z" fill="white"/>
<path fill-rule="evenodd" clip-rule="evenodd" d="M61.6133 19.5312V28.8074H64.5405V20.902C65.5564 20.9326 66.3395 20.9219 66.8894 20.87C67.042 20.8555 67.1914 20.825 67.3467 20.8063C67.459 20.7928 67.8056 20.7373 68.1326 20.6558C68.4045 20.5879 68.659 20.4965 68.786 20.4551C69.0258 20.3768 69.3043 20.2694 69.543 20.1449C69.7403 20.0419 69.9174 19.9434 70.0521 19.849C70.2935 19.6795 70.4352 19.5736 70.4766 19.5312H61.6133Z" fill="white"/>
<path fill-rule="evenodd" clip-rule="evenodd" d="M25.0625 19.542H35.5505H27.9924V26.053H35.7767V28.8162H25.0625V19.542Z" fill="white"/>
<path fill-rule="evenodd" clip-rule="evenodd" d="M8.41992 19.5312H12.319L15.4917 22.8639V19.5312H18.4216V29.9928L8.41992 19.5312Z" fill="white"/>
<path fill-rule="evenodd" clip-rule="evenodd" d="M1.33203 19.5312H4.26206L4.27111 28.8156H1.33203V19.5312Z" fill="white"/>
<path fill-rule="evenodd" clip-rule="evenodd" d="M45.9808 19.5312L40.4316 28.8074L43.7621 28.8212L48.1788 21.355L52.4424 28.8192L55.7674 28.8126L50.4111 19.5312H45.9808Z" fill="white"/>
<path fill-rule="evenodd" clip-rule="evenodd" d="M100.52 19.5312H104.46L103.951 20.4128V28.8212H101.024V20.4128L100.52 19.5312Z" fill="white"/>
</g>
</g>
<defs>
<clipPath id="clip0_638_4852">
<rect width="109" height="22" fill="white" transform="translate(1.33398 8)"/>
</clipPath>
</defs>
</svg>
