<svg width="113" height="38" viewBox="0 0 113 38" fill="none" xmlns="http://www.w3.org/2000/svg">
<g clip-path="url(#clip0_638_4873)">
<mask id="mask0_638_4873" style="mask-type:luminance" maskUnits="userSpaceOnUse" x="1" y="7" width="110" height="24">
<path d="M110.677 7H1.41016V30.33H110.677V7Z" fill="white"/>
</mask>
<g mask="url(#mask0_638_4873)">
<path d="M86.1036 22.4009V15.2991H91.0303V12.657H84.8589V11.8845C85.4097 11.5371 85.8859 11.0822 86.2591 10.5467C86.9507 9.53219 87.0529 8.59303 87.0529 7.40022V6.99585H83.149V12.6483H79.209V15.2904H83.149V24.872C83.149 28.2258 84.7335 29.8273 88.0742 29.8273H91.0303V27.1851H91.0217V27.1764H86.1007V23.0516C86.1007 22.8443 86.1007 22.6255 86.1007 22.3936" fill="white"/>
<path d="M22.3828 29.8346V12.6556H25.3389V15.4311C25.3389 15.4311 26.366 15.4311 26.3761 15.4311C26.8082 13.5469 28.2949 12.1599 31.5779 12.1599C35.6821 12.1599 38.1455 14.6368 38.1455 19.0979V29.8346H35.3249V19.5936C35.3249 16.4543 33.5486 14.8021 30.5927 14.8021C27.3096 14.8021 25.3389 16.7848 25.3389 20.9139V29.8346H22.3828Z" fill="white"/>
<path d="M49.2464 12.1598C52.0699 12.1598 54.1602 13.2483 54.7681 15.5759H55.8068V6.99585H58.6374V29.8302H55.8068V26.901C55.8068 26.901 54.7652 26.901 54.7681 26.901C54.444 29.2403 52.0699 30.3259 49.2464 30.3259C45.1408 30.3259 41.0352 27.3533 41.0352 21.24C41.0352 15.1266 45.1393 12.1555 49.2464 12.1555V12.1598ZM49.9364 27.6822C53.3837 27.6822 55.8428 25.3633 55.8428 21.24C55.8428 17.1166 53.3794 14.7977 49.9364 14.7977C46.4935 14.7977 44.0301 17.1166 44.0301 21.24C44.0301 25.3633 46.4935 27.6822 49.9364 27.6822Z" fill="white"/>
<path d="M68.1713 19.7936C68.3039 19.7936 70.3321 19.7515 71.2815 19.7588C72.1286 19.766 73.1197 19.7588 73.9681 19.7674H74.409V18.5993C74.409 16.1543 73.1614 14.7339 70.1392 14.7339C67.1168 14.7339 65.9039 16.1542 65.8377 17.9384H62.785C62.9162 14.6672 65.2153 12.157 70.1392 12.157C75.063 12.157 77.2671 14.6672 77.2671 18.7645V29.8316H74.4464L74.4378 27.2229H73.4021C73.0477 29.0577 71.4213 30.3316 68.5041 30.3316C64.5628 30.3316 61.9352 28.0852 61.9352 24.7822C61.9119 23.8697 62.1483 22.9696 62.6165 22.1879C63.1317 21.4171 63.8663 20.821 64.7241 20.4776C65.8232 20.032 66.9964 19.8004 68.1814 19.795L68.1713 19.7936ZM69.0025 27.7548C72.2841 27.7548 74.4104 25.9402 74.4104 22.3052H68.4681C68.1678 22.3013 67.8676 22.3163 67.5692 22.3502C65.7051 22.5734 64.8969 23.4329 64.8969 24.7807C64.8969 26.5967 66.3749 27.7533 69.0025 27.7533" fill="white"/>
<path d="M10.4426 12.1599C8.65727 12.1599 6.912 12.6926 5.42756 13.6906C3.94311 14.6885 2.78616 16.107 2.103 17.7665C1.41984 19.426 1.24116 21.2521 1.58957 23.0138C1.93798 24.7755 2.79782 26.3936 4.06035 27.6636C5.32289 28.9336 6.93142 29.7985 8.6825 30.1488C10.4336 30.499 12.2486 30.319 13.898 29.6314C15.5473 28.9438 16.957 27.7795 17.9486 26.2859C18.9404 24.7922 19.4695 23.0363 19.4692 21.2401C19.4688 18.8317 18.5176 16.5222 16.8249 14.8194C15.1321 13.1166 12.8364 12.1599 10.4426 12.1599ZM10.4426 27.3461C9.24227 27.3461 8.06887 26.988 7.07081 26.317C6.07275 25.6461 5.29484 24.6924 4.83548 23.5767C4.37613 22.461 4.25596 21.2332 4.49013 20.0488C4.72431 18.8643 5.30233 17.7763 6.15111 16.9224C6.9999 16.0684 8.08131 15.4869 9.25861 15.2513C10.4359 15.0157 11.6562 15.1366 12.7652 15.5988C13.8742 16.0609 14.822 16.8436 15.4889 17.8477C16.1558 18.8518 16.5118 20.0324 16.5118 21.2401C16.5119 22.0419 16.3551 22.836 16.0502 23.577C15.7452 24.3178 15.2982 24.991 14.7346 25.5581C14.1709 26.1252 13.5018 26.5749 12.7654 26.8817C12.0289 27.1885 11.2397 27.3463 10.4426 27.3461Z" fill="white"/>
<path d="M101.653 12.1599C99.8677 12.1596 98.1222 12.6921 96.6379 13.6899C95.1526 14.6876 93.9957 16.106 93.3123 17.7655C92.629 19.425 92.4501 21.2511 92.7984 23.0129C93.1466 24.7746 94.0064 26.393 95.2692 27.6632C96.5314 28.9333 98.1398 29.7982 99.8909 30.1487C101.642 30.499 103.457 30.3191 105.107 29.6315C106.756 28.944 108.166 27.7797 109.157 26.286C110.149 24.7924 110.679 23.0364 110.679 21.2401C110.678 18.8319 109.727 16.5226 108.034 14.8198C106.342 13.1171 104.047 12.1603 101.653 12.1599ZM101.653 27.3461C100.453 27.3464 99.2788 26.9886 98.2806 26.3178C97.2823 25.647 96.5045 24.6934 96.0452 23.5777C95.585 22.462 95.4646 21.2343 95.6989 20.0497C95.9332 18.8651 96.511 17.777 97.3592 16.9229C98.2083 16.0688 99.2899 15.4871 100.467 15.2514C101.645 15.0157 102.865 15.1365 103.974 15.5986C105.083 16.0607 106.031 16.8434 106.698 17.8475C107.365 18.8517 107.721 20.0323 107.721 21.2401C107.72 22.8591 107.081 24.4117 105.943 25.5568C104.805 26.7017 103.262 27.3453 101.653 27.3461Z" fill="white"/>
</g>
</g>
<defs>
<clipPath id="clip0_638_4873">
<rect width="109.267" height="23.33" fill="white" transform="translate(1.41016 7)"/>
</clipPath>
</defs>
</svg>
