<svg width="122" height="46" viewBox="0 0 122 46" fill="none" xmlns="http://www.w3.org/2000/svg">
<g clip-path="url(#clip0_1_770)">
<path d="M3.5824 32.1607C3.44282 32.026 3.30323 31.925 3.09384 31.8576C2.74487 31.7229 2.25631 31.7229 1.90733 31.8576C1.73284 31.925 1.55836 32.026 1.41877 32.1607C1.27918 32.2955 1.17449 32.4302 1.10469 32.5986C1.0349 32.767 1 32.969 1 33.1711V34.5856C1 34.7877 1.0349 34.9898 1.10469 35.1581C1.17449 35.3265 1.27918 35.4949 1.41877 35.596C1.55836 35.7307 1.69795 35.8317 1.90733 35.8991C2.08182 35.9664 2.2912 36.0001 2.50059 36.0001C2.70997 36.0001 2.91935 35.9664 3.09384 35.8991C3.26833 35.8317 3.44282 35.7307 3.5824 35.596C3.72199 35.4613 3.82669 35.3265 3.89648 35.1581C3.96628 34.9898 4.00117 34.7877 4.00117 34.5856V33.2048C4.00117 33.0027 3.96628 32.8006 3.89648 32.6322C3.82669 32.4638 3.72199 32.2955 3.5824 32.1607ZM3.26833 33.2048V34.5856C3.26833 34.7877 3.19853 34.9561 3.09384 35.0908C2.95425 35.2255 2.77977 35.2929 2.53548 35.2929C2.2912 35.2929 2.11672 35.2255 1.97713 35.0908C1.83754 34.9561 1.80264 34.7877 1.80264 34.5856V33.2048C1.80264 33.0027 1.87243 32.8343 1.97713 32.6996C2.11672 32.5649 2.2912 32.4975 2.53548 32.4975C2.77977 32.4975 2.95425 32.5649 3.09384 32.6996C3.19853 32.8006 3.26833 32.969 3.26833 33.2048Z" fill="white"/>
<path d="M9.13057 32.1944C9.02588 32.0934 8.88629 31.9924 8.7467 31.925C8.60711 31.8577 8.43263 31.824 8.25814 31.824H7.00184C6.93204 31.824 6.86225 31.8577 6.79245 31.8913C6.75755 31.925 6.72266 31.9924 6.72266 32.0934V35.6634C6.72266 35.7307 6.75755 35.7981 6.79245 35.8654C6.82735 35.8991 6.89714 35.9328 7.00184 35.9328H7.21122C7.28101 35.9328 7.35081 35.8991 7.4206 35.8654C7.4555 35.8317 7.4904 35.7644 7.4904 35.6634V34.3162H8.25814C8.43263 34.3162 8.60711 34.2825 8.7467 34.2152C8.88629 34.1478 9.02588 34.0468 9.13057 33.9457C9.23527 33.8447 9.33996 33.71 9.40975 33.5416C9.47955 33.4069 9.51445 33.2385 9.51445 33.0701C9.51445 32.9017 9.47955 32.7333 9.40975 32.5986C9.33996 32.4639 9.23527 32.3292 9.13057 32.1944ZM8.7467 33.0701C8.7467 33.1711 8.7467 33.2385 8.71181 33.3058C8.67691 33.3732 8.64201 33.4406 8.57222 33.4742C8.53732 33.5079 8.46752 33.5416 8.39773 33.5753C8.32794 33.6089 8.25814 33.6089 8.18835 33.6089H7.4555V32.5312H8.18835C8.25814 32.5312 8.32794 32.5312 8.39773 32.5649C8.46752 32.5986 8.53732 32.6323 8.57222 32.6659C8.60711 32.6996 8.67691 32.767 8.71181 32.8343C8.71181 32.9017 8.7467 33.0027 8.7467 33.0701Z" fill="white"/>
<path d="M14.2617 35.2255H12.6564V34.1815H14.0174C14.0872 34.1815 14.157 34.1478 14.2268 34.1141C14.2617 34.0804 14.2966 34.0131 14.2966 33.912V33.7437C14.2966 33.6763 14.2617 33.6089 14.2268 33.5416C14.1919 33.5079 14.1221 33.4742 14.0174 33.4742H12.6564V32.4975H14.157C14.2268 32.4975 14.2966 32.4639 14.3664 32.4302C14.4013 32.3965 14.4362 32.3291 14.4362 32.2281V32.0597C14.4362 31.9924 14.4013 31.925 14.3664 31.8576C14.3315 31.824 14.2617 31.7903 14.157 31.7903H12.1679C12.0981 31.7903 12.0283 31.824 11.9585 31.8576C11.9236 31.8913 11.8887 31.9587 11.8887 32.0597V35.6297C11.8887 35.697 11.9236 35.7644 11.9585 35.8317C11.9934 35.8654 12.0632 35.8991 12.1679 35.8991H14.2617C14.3315 35.8991 14.4013 35.8654 14.4711 35.8317C14.506 35.7981 14.5409 35.7307 14.5409 35.6297V35.4613C14.5409 35.3939 14.506 35.3266 14.4711 35.2592C14.4362 35.2592 14.3664 35.2255 14.2617 35.2255Z" fill="white"/>
<path d="M19.8802 31.824H19.6708C19.601 31.824 19.5312 31.8577 19.4614 31.8913C19.4265 31.925 19.3916 31.9924 19.3916 32.0934V34.3162L18.0306 32.026C17.9957 31.9587 17.9259 31.925 17.891 31.8913C17.8213 31.8577 17.7864 31.8577 17.6817 31.8577H17.4374C17.3676 31.8577 17.2978 31.8913 17.228 31.925C17.1931 31.9587 17.1582 32.026 17.1582 32.1271V35.697C17.1582 35.7644 17.1931 35.8317 17.228 35.8991C17.2629 35.9328 17.3327 35.9665 17.4374 35.9665H17.6468C17.7166 35.9665 17.7864 35.9328 17.8562 35.8991C17.891 35.8654 17.9259 35.7981 17.9259 35.697V33.3058L19.3567 35.7644C19.3916 35.8317 19.4265 35.8654 19.4963 35.8991C19.5312 35.9328 19.601 35.9665 19.7057 35.9665H19.8802C19.95 35.9665 20.0198 35.9328 20.0896 35.8991C20.1245 35.8654 20.1594 35.7981 20.1594 35.697V32.0934C20.1594 32.026 20.1245 31.9587 20.0896 31.8913C20.0198 31.8577 19.95 31.824 19.8802 31.824Z" fill="white"/>
<path d="M29.0234 31.824H26.9296C26.8598 31.824 26.79 31.8577 26.7202 31.8913C26.6853 31.925 26.6504 31.9924 26.6504 32.0934V35.6634C26.6504 35.7307 26.6853 35.7981 26.7202 35.8654C26.7551 35.8991 26.8249 35.9328 26.9296 35.9328H27.139C27.2087 35.9328 27.2785 35.8991 27.3483 35.8654C27.3832 35.8317 27.4181 35.7644 27.4181 35.6634V34.2488H28.7791C28.8489 34.2488 28.9187 34.2152 28.9885 34.1815C29.0234 34.1478 29.0583 34.0804 29.0583 33.9794V33.811C29.0583 33.7437 29.0234 33.6763 28.9885 33.6089C28.9187 33.6089 28.8489 33.5753 28.7791 33.5753H27.4181V32.5312H29.0234C29.0932 32.5312 29.163 32.4975 29.2328 32.4639C29.2677 32.4302 29.3026 32.3628 29.3026 32.2618V32.0934C29.3026 32.026 29.2677 31.9587 29.2328 31.8913C29.163 31.8577 29.0932 31.824 29.0234 31.824Z" fill="white"/>
<path d="M34.1879 32.1607C34.0483 32.026 33.9087 31.925 33.6993 31.8576C33.3503 31.7229 32.8618 31.7229 32.5128 31.8576C32.3383 31.925 32.1638 32.026 32.0242 32.1607C31.8846 32.2955 31.78 32.4302 31.7102 32.5986C31.6404 32.767 31.6055 32.969 31.6055 33.1711V34.5856C31.6055 34.7877 31.6404 34.9898 31.7102 35.1581C31.78 35.3265 31.8846 35.4949 32.0242 35.596C32.1638 35.7307 32.3034 35.8317 32.5128 35.8991C32.6873 35.9664 32.8967 36.0001 33.1061 36.0001C33.3154 36.0001 33.5248 35.9664 33.6993 35.8991C33.8738 35.8317 34.0483 35.7307 34.1879 35.596C34.3275 35.4613 34.4322 35.3265 34.502 35.1581C34.5717 34.9898 34.6066 34.7877 34.6066 34.5856V33.2048C34.6066 33.0027 34.5717 32.8006 34.502 32.6322C34.4322 32.4638 34.3275 32.2955 34.1879 32.1607ZM33.8738 33.2048V34.5856C33.8738 34.7877 33.804 34.9561 33.6993 35.0908C33.5597 35.2255 33.3852 35.2929 33.141 35.2929C32.8967 35.2929 32.7222 35.2255 32.5826 35.0908C32.443 34.9561 32.4081 34.7877 32.4081 34.5856V33.2048C32.4081 33.0027 32.4779 32.8343 32.5826 32.6996C32.7222 32.5649 32.8967 32.4975 33.141 32.4975C33.3852 32.4975 33.5597 32.5649 33.6993 32.6996C33.804 32.8006 33.8738 32.969 33.8738 33.2048Z" fill="white"/>
<path d="M39.422 34.1141C39.3871 34.0804 39.422 34.0805 39.422 34.0468C39.5965 33.9457 39.736 33.811 39.8756 33.6426C39.9803 33.4742 40.0501 33.2385 40.0501 33.0027C40.0501 32.8343 40.0152 32.6659 39.9454 32.5312C39.8756 32.3965 39.8058 32.2618 39.7011 32.1608C39.5965 32.0597 39.4569 31.9587 39.3173 31.925C39.1777 31.8577 39.0032 31.824 38.8287 31.824H37.6073C37.5375 31.824 37.4677 31.8577 37.3979 31.8913C37.363 31.925 37.3281 31.9924 37.3281 32.0934V35.6634C37.3281 35.7307 37.363 35.7981 37.3979 35.8654C37.4328 35.8991 37.5026 35.9328 37.6073 35.9328H37.8167C37.8865 35.9328 37.9563 35.8991 38.0261 35.8654C38.061 35.8317 38.0959 35.7644 38.0959 35.6634V34.2488H38.6193C38.6542 34.2488 38.6542 34.2488 38.6542 34.2825L39.3522 35.7307C39.422 35.8991 39.5616 35.9328 39.6662 35.9328H39.9454C40.0501 35.9328 40.1199 35.8654 40.1548 35.8317C40.1897 35.7981 40.1897 35.697 40.1548 35.596L39.422 34.1141ZM39.2824 33.0364C39.2824 33.1038 39.2824 33.1711 39.2475 33.2385C39.2126 33.3058 39.1777 33.3732 39.1428 33.4069C39.1079 33.4406 39.0381 33.4742 38.9683 33.5079C38.8985 33.5416 38.8287 33.5416 38.7589 33.5416H38.061V32.5312H38.7589C38.8287 32.5312 38.8985 32.5312 38.9683 32.5649C39.0381 32.5986 39.073 32.6323 39.1428 32.6659C39.1777 32.6996 39.2126 32.767 39.2475 32.8343C39.2824 32.868 39.2824 32.9354 39.2824 33.0364Z" fill="white"/>
<path d="M48.7754 31.824H46.6815C46.6117 31.824 46.5419 31.8577 46.4721 31.8913C46.4372 31.925 46.4023 31.9924 46.4023 32.0934V35.6634C46.4023 35.7307 46.4372 35.7981 46.4721 35.8654C46.507 35.8991 46.5768 35.9328 46.6815 35.9328H46.8909C46.9607 35.9328 47.0305 35.8991 47.1003 35.8654C47.1352 35.8317 47.1701 35.7644 47.1701 35.6634V34.2488H48.5311C48.6009 34.2488 48.6707 34.2152 48.7405 34.1815C48.7754 34.1478 48.8103 34.0804 48.8103 33.9794V33.811C48.8103 33.7437 48.7754 33.6763 48.7405 33.6089C48.7056 33.5753 48.6358 33.5416 48.5311 33.5416H47.1701V32.4975H48.7754C48.8452 32.4975 48.915 32.4639 48.9847 32.4302C49.0196 32.3965 49.0545 32.3292 49.0545 32.2281V32.0597C49.0545 31.9924 49.0196 31.925 48.9847 31.8577C48.915 31.8577 48.8452 31.824 48.7754 31.824Z" fill="white"/>
<path d="M53.9398 32.1607C53.8002 32.026 53.6606 31.925 53.4513 31.8576C53.1023 31.7229 52.6137 31.7229 52.2648 31.8576C52.0903 31.925 51.9158 32.026 51.7762 32.1607C51.6366 32.2955 51.5319 32.4302 51.4621 32.5986C51.3923 32.767 51.3574 32.969 51.3574 33.1711V34.5856C51.3574 34.7877 51.3923 34.9898 51.4621 35.1581C51.5319 35.3265 51.6366 35.4949 51.7762 35.596C51.9158 35.7307 52.0554 35.8317 52.2648 35.8991C52.4392 35.9664 52.6486 36.0001 52.858 36.0001C53.0674 36.0001 53.2768 35.9664 53.4513 35.8991C53.6258 35.8317 53.8002 35.7307 53.9398 35.596C54.0794 35.4613 54.1841 35.3265 54.2539 35.1581C54.3237 34.9898 54.3586 34.7877 54.3586 34.5856V33.2048C54.3586 33.0027 54.3237 32.8006 54.2539 32.6322C54.1841 32.4638 54.0794 32.2955 53.9398 32.1607ZM53.6258 33.2048V34.5856C53.6258 34.7877 53.556 34.9561 53.4513 35.0908C53.3117 35.2255 53.1372 35.2929 52.8929 35.2929C52.6486 35.2929 52.4741 35.2255 52.3345 35.0908C52.195 34.9561 52.1601 34.7877 52.1601 34.5856V33.2048C52.1601 33.0027 52.2299 32.8343 52.3345 32.6996C52.4741 32.5649 52.6486 32.4975 52.8929 32.4975C53.1372 32.4975 53.3117 32.5649 53.4513 32.6996C53.556 32.8006 53.6258 32.969 53.6258 33.2048Z" fill="white"/>
<path d="M59.4182 35.2255H57.8129V32.0934C57.8129 32.026 57.778 31.9587 57.7431 31.8913C57.7082 31.8577 57.6384 31.824 57.5337 31.824H57.3243C57.2545 31.824 57.1848 31.8577 57.115 31.8913C57.0801 31.925 57.0452 31.9924 57.0452 32.0934V35.6634C57.0452 35.7307 57.0801 35.7981 57.115 35.8654C57.1499 35.8991 57.2196 35.9328 57.3243 35.9328H59.4182C59.488 35.9328 59.5578 35.8991 59.6276 35.8654C59.6625 35.8317 59.6974 35.7644 59.6974 35.6634V35.495C59.6974 35.4276 59.6625 35.3602 59.6276 35.2929C59.5578 35.2592 59.488 35.2255 59.4182 35.2255Z" fill="white"/>
<path d="M64.4435 35.2255H62.8382V32.0934C62.8382 32.026 62.8033 31.9587 62.7684 31.8913C62.7335 31.8577 62.6637 31.824 62.559 31.824H62.3496C62.2798 31.824 62.21 31.8577 62.1402 31.8913C62.1053 31.925 62.0704 31.9924 62.0704 32.0934V35.6634C62.0704 35.7307 62.1053 35.7981 62.1402 35.8654C62.1751 35.8991 62.2449 35.9328 62.3496 35.9328H64.4435C64.5133 35.9328 64.583 35.8991 64.6528 35.8654C64.6877 35.8317 64.7226 35.7644 64.7226 35.6634V35.495C64.7226 35.4276 64.6877 35.3602 64.6528 35.2929C64.6179 35.2592 64.5481 35.2255 64.4435 35.2255Z" fill="white"/>
<path d="M69.4691 32.1607C69.3295 32.026 69.1899 31.925 68.9806 31.8576C68.6316 31.7229 68.143 31.7229 67.794 31.8576C67.6196 31.925 67.4451 32.026 67.3055 32.1607C67.1659 32.2955 67.0612 32.4302 66.9914 32.5986C66.9216 32.767 66.8867 32.969 66.8867 33.1711V34.5856C66.8867 34.7877 66.9216 34.9898 66.9914 35.1581C67.0612 35.3265 67.1659 35.4949 67.3055 35.596C67.4451 35.7307 67.5847 35.8317 67.794 35.8991C67.9685 35.9664 68.1779 36.0001 68.3873 36.0001C68.5967 36.0001 68.8061 35.9664 68.9806 35.8991C69.155 35.8317 69.3295 35.7307 69.4691 35.596C69.6087 35.4613 69.7134 35.3265 69.7832 35.1581C69.853 34.9898 69.8879 34.7877 69.8879 34.5856V33.2048C69.8879 33.0027 69.853 32.8006 69.7832 32.6322C69.7134 32.4638 69.6087 32.2955 69.4691 32.1607ZM69.155 33.2048V34.5856C69.155 34.7877 69.0853 34.9561 68.9806 35.0908C68.841 35.2255 68.6665 35.2929 68.4222 35.2929C68.1779 35.2929 68.0034 35.2255 67.8638 35.0908C67.7243 34.9561 67.6894 34.7877 67.6894 34.5856V33.2048C67.6894 33.0027 67.7592 32.8343 67.8638 32.6996C68.0034 32.5649 68.1779 32.4975 68.4222 32.4975C68.6665 32.4975 68.841 32.5649 68.9806 32.6996C69.0853 32.8006 69.155 32.969 69.155 33.2048Z" fill="white"/>
<path d="M77.2865 31.824H77.0772C77.0074 31.824 76.9376 31.8577 76.8678 31.8913C76.8329 31.925 76.798 31.9924 76.798 32.0934V34.5856C76.798 34.7877 76.7282 34.9561 76.6235 35.1245C76.5188 35.2592 76.3443 35.3266 76.1 35.3266C75.9604 35.3266 75.8557 35.2929 75.786 35.2592C75.7162 35.2255 75.6464 35.1918 75.5766 35.1245C75.5068 35.0571 75.4719 34.9898 75.437 34.8887C75.4021 34.7877 75.4021 34.6867 75.4021 34.5856V32.0934C75.4021 32.026 75.3672 31.9587 75.3323 31.8913C75.2974 31.8577 75.2276 31.824 75.1229 31.824H74.9135C74.8437 31.824 74.7739 31.8577 74.7041 31.8913C74.6692 31.925 74.6343 31.9924 74.6343 32.0934V34.5856C74.6343 34.7877 74.5645 34.9561 74.4599 35.1245C74.3552 35.2592 74.1807 35.3266 73.9364 35.3266C73.7968 35.3266 73.6921 35.2929 73.6223 35.2592C73.5525 35.2255 73.4827 35.1918 73.4129 35.1245C73.3431 35.0571 73.3082 34.9898 73.2733 34.8887C73.2384 34.7877 73.2384 34.6867 73.2384 34.5856V32.0934C73.2384 32.026 73.2035 31.9587 73.1687 31.8913C73.1338 31.8577 73.064 31.824 72.9593 31.824H72.7499C72.6801 31.824 72.6103 31.8577 72.5405 31.8913C72.5056 31.925 72.4707 31.9924 72.4707 32.0934V34.5856C72.4707 34.7877 72.5056 34.9898 72.5754 35.1582C72.6452 35.3266 72.7499 35.495 72.8546 35.596C72.9942 35.7307 73.1338 35.8317 73.3082 35.8991C73.4827 35.9665 73.6921 36.0001 73.9015 36.0001C74.1458 36.0001 74.3552 35.9665 74.4948 35.8654C74.6692 35.7981 74.8088 35.6634 74.9484 35.5286C74.9484 35.5286 74.9484 35.5286 74.9833 35.5286C75.0531 35.596 75.088 35.6634 75.1578 35.697C75.2276 35.7644 75.2974 35.7981 75.4021 35.8317C75.4719 35.8654 75.5766 35.8991 75.6813 35.9328C75.786 35.9665 75.8906 35.9665 76.0302 35.9665C76.2396 35.9665 76.449 35.9328 76.6235 35.8654C76.798 35.7981 76.9376 35.697 77.0772 35.5623C77.2167 35.4276 77.2865 35.2929 77.3563 35.1245C77.4261 34.9561 77.461 34.754 77.461 34.552V32.0597C77.461 31.9924 77.4261 31.925 77.3912 31.8577C77.4261 31.8577 77.3563 31.824 77.2865 31.824Z" fill="white"/>
<path d="M82.625 35.2255H81.0197V34.1815H82.3807C82.4505 34.1815 82.5203 34.1478 82.5901 34.1141C82.625 34.0804 82.6599 34.0131 82.6599 33.912V33.7437C82.6599 33.6763 82.625 33.6089 82.5901 33.5416C82.5552 33.5079 82.4854 33.4742 82.3807 33.4742H81.0197V32.4975H82.5203C82.5901 32.4975 82.6599 32.4639 82.7297 32.4302C82.7646 32.3965 82.7995 32.3291 82.7995 32.2281V32.0597C82.7995 31.9924 82.7646 31.925 82.7297 31.8576C82.6948 31.824 82.625 31.7903 82.5203 31.7903H80.5311C80.4613 31.7903 80.3915 31.824 80.3217 31.8576C80.2868 31.8913 80.252 31.9587 80.252 32.0597V35.6297C80.252 35.697 80.2868 35.7644 80.3217 35.8317C80.3566 35.8654 80.4264 35.8991 80.5311 35.8991H82.625C82.6948 35.8991 82.7646 35.8654 82.8344 35.8317C82.8693 35.7981 82.9041 35.7307 82.9041 35.6297V35.4613C82.9041 35.3939 82.8693 35.3266 82.8344 35.2592C82.7646 35.2592 82.6948 35.2255 82.625 35.2255Z" fill="white"/>
<path d="M87.6152 34.1141C87.5803 34.0804 87.6152 34.0805 87.6152 34.0468C87.7897 33.9457 87.9293 33.811 88.0689 33.6426C88.1736 33.4742 88.2434 33.2385 88.2434 33.0027C88.2434 32.8343 88.2085 32.6659 88.1387 32.5312C88.0689 32.3965 87.9991 32.2618 87.8944 32.1608C87.7897 32.0597 87.6501 31.9587 87.5105 31.925C87.3709 31.8577 87.1964 31.824 87.0219 31.824H85.8005C85.7307 31.824 85.661 31.8577 85.5912 31.8913C85.5563 31.925 85.5214 31.9924 85.5214 32.0934V35.6634C85.5214 35.7307 85.5563 35.7981 85.5912 35.8654C85.6261 35.8991 85.6959 35.9328 85.8005 35.9328H86.0099C86.0797 35.9328 86.1495 35.8991 86.2193 35.8654C86.2542 35.8317 86.2891 35.7644 86.2891 35.6634V34.2488H86.8126C86.8475 34.2488 86.8475 34.2488 86.8475 34.2825L87.5454 35.7307C87.6152 35.8991 87.7548 35.9328 87.8595 35.9328H88.1387C88.2434 35.9328 88.3132 35.8654 88.3481 35.8317C88.3829 35.7981 88.3829 35.697 88.3481 35.596L87.6152 34.1141ZM87.5105 33.0364C87.5105 33.1038 87.5105 33.1711 87.4756 33.2385C87.4407 33.3058 87.4058 33.3732 87.3709 33.4069C87.336 33.4406 87.2662 33.4742 87.1964 33.5079C87.1266 33.5416 87.0568 33.5416 86.9871 33.5416H86.2891V32.5312H86.9871C87.0568 32.5312 87.1266 32.5312 87.1964 32.5649C87.2662 32.5986 87.3011 32.6323 87.3709 32.6659C87.4058 32.6996 87.4407 32.767 87.4756 32.8343C87.4756 32.868 87.5105 32.9354 87.5105 33.0364Z" fill="white"/>
<path d="M93.1635 34.3835C93.1286 34.2488 93.0239 34.1478 92.9541 34.0467C92.8494 33.9457 92.7447 33.8447 92.6052 33.7773C92.4656 33.71 92.326 33.6089 92.1515 33.5416C92.0468 33.5079 91.9421 33.4405 91.8374 33.4069C91.7676 33.3732 91.6978 33.3058 91.6629 33.2721C91.628 33.2385 91.5931 33.1711 91.5582 33.1037C91.5233 33.0364 91.5233 32.969 91.5233 32.9017C91.5233 32.8343 91.5233 32.8006 91.5582 32.767C91.5931 32.7333 91.628 32.6659 91.6629 32.6322C91.6978 32.5986 91.7676 32.5649 91.8374 32.5312C91.977 32.4638 92.1864 32.4975 92.3609 32.5649C92.4656 32.6322 92.5354 32.6659 92.5703 32.6996C92.6401 32.767 92.7098 32.767 92.7447 32.767C92.8145 32.767 92.8494 32.7333 92.9192 32.6659L93.0588 32.5312C93.1635 32.4302 93.1635 32.2955 93.0588 32.1607C92.9541 32.0597 92.8145 31.9587 92.6401 31.8913C92.4656 31.7903 92.2562 31.7566 92.0119 31.7566C91.8374 31.7566 91.6629 31.7903 91.4884 31.8576C91.3488 31.925 91.2093 31.9923 91.1046 32.0934C90.9999 32.1944 90.9301 32.3291 90.8603 32.4638C90.7905 32.5986 90.7905 32.7333 90.7905 32.868C90.7905 33.0364 90.8254 33.1711 90.8603 33.3058C90.8952 33.4405 90.9999 33.5416 91.0697 33.6763C91.1744 33.7773 91.2791 33.8784 91.4187 33.9457C91.5582 34.0131 91.6978 34.1141 91.8374 34.1815C92.0817 34.2825 92.2213 34.3835 92.326 34.4846C92.4307 34.5856 92.4656 34.6866 92.4656 34.8214C92.4656 34.9561 92.4307 35.0571 92.326 35.1245C92.2213 35.2255 92.0817 35.2592 91.9072 35.2592C91.8374 35.2592 91.7676 35.2592 91.6978 35.2255C91.628 35.2255 91.5931 35.1918 91.5233 35.1581C91.4884 35.1245 91.4535 35.1245 91.4187 35.0908L91.314 34.9898C91.2791 34.9561 91.2093 34.9224 91.1046 34.9224C91.0348 34.9224 90.965 34.9561 90.9301 34.9898L90.7905 35.1245C90.7207 35.1918 90.7207 35.2592 90.7207 35.3265C90.7207 35.3939 90.7556 35.4613 90.7905 35.4949C90.8952 35.6296 91.0697 35.7307 91.2093 35.8317C91.3838 35.9328 91.5931 35.9664 91.8723 35.9664C92.0468 35.9664 92.2213 35.9328 92.3958 35.8654C92.5703 35.798 92.7099 35.7307 92.8145 35.6296C92.9192 35.5286 93.0239 35.3939 93.0937 35.2592C93.1635 35.1245 93.1984 34.9561 93.1984 34.8214C93.2333 34.653 93.1984 34.5183 93.1635 34.3835Z" fill="white"/>
<path d="M101.853 23.7073C102.9 23.7073 103.773 24.5492 103.773 25.5596C103.773 26.5363 102.9 27.3783 101.853 27.3783C100.841 27.3783 99.9689 26.5363 99.9689 25.5596C99.9689 24.5829 100.806 23.7073 101.853 23.7073Z" fill="white"/>
<path d="M105.414 19.8006C105.414 19.5985 105.588 19.4301 105.798 19.4301H106.74C106.949 19.4301 107.054 19.5311 107.089 19.6659L107.438 20.5078C107.856 19.9353 108.589 19.228 109.636 19.228C110.753 19.228 111.521 19.6322 111.242 20.07L110.264 21.6192C110.195 21.7539 110.055 21.855 109.811 21.7876C109.706 21.7539 109.497 21.6866 109.322 21.6866C108.729 21.6866 108.24 22.1244 108.24 22.798V27.0078C108.24 27.2436 108.136 27.3783 107.787 27.3783H105.728C105.518 27.3783 105.344 27.2099 105.344 27.0078V19.8006H105.414Z" fill="white"/>
<path d="M115.813 19.2617C118.116 19.2617 120 21.1141 120 23.3032C120 25.526 118.116 27.412 115.813 27.412C113.51 27.412 111.625 25.5596 111.625 23.3032C111.625 21.1141 113.51 19.2617 115.813 19.2617ZM115.813 24.8861C116.685 24.8861 117.418 24.1788 117.418 23.3032C117.418 22.4612 116.72 21.7539 115.813 21.7539C114.905 21.7539 114.208 22.4612 114.208 23.3032C114.242 24.1788 114.94 24.8861 115.813 24.8861Z" fill="white"/>
<path d="M77.9829 10H76.936C76.273 10 75.8542 10.2694 75.6448 10.4715C75.4354 10.6736 75.1562 11.0777 75.1562 11.7176V13.4016C75.1562 14.0415 75.4354 14.4456 75.6448 14.6477C75.8542 14.8497 76.273 15.1192 76.936 15.1192H77.9829C78.646 15.1192 79.0648 14.8497 79.2741 14.6477C79.4835 14.4456 79.7627 14.0415 79.7627 13.4016V11.7176C79.7627 11.0777 79.4835 10.6736 79.2741 10.4715C79.0648 10.2694 78.646 10 77.9829 10Z" fill="white"/>
<path d="M16.5991 13.6036C16.285 13.0984 15.9361 12.6606 15.5522 12.2565C15.0636 11.7513 14.5053 11.3472 13.8771 10.9767C13.6328 10.842 13.3886 10.7073 13.1443 10.6062C12.2021 10.2021 11.2249 10 10.178 10H2.77977C2.11672 10 1.69795 10.2694 1.48856 10.4715C1.27918 10.7073 1 11.1114 1 11.7513V25.6943C1 26.3342 1.27918 26.7383 1.48856 26.9404C1.69795 27.1425 2.11672 27.4119 2.77977 27.4119H4.00117C4.66422 27.4119 5.08299 27.1425 5.29238 26.9404C5.50176 26.7383 5.78094 26.3342 5.78094 25.6943V25.0207H10.1431C11.19 25.0207 12.1672 24.8187 13.1094 24.4145C14.0516 24.0104 14.8543 23.4715 15.5173 22.7642C16.1804 22.0907 16.7387 21.2824 17.1226 20.4067C17.5413 19.4974 17.7158 18.5207 17.7158 17.5104C17.7158 16.5 17.5065 15.557 17.1226 14.6477C17.0179 14.3109 16.8434 13.9404 16.5991 13.6036ZM12.6906 18.8238C12.5161 19.1943 12.2718 19.5311 11.9927 19.7668C11.7135 20.0026 11.3994 20.2047 11.0504 20.3394C10.7015 20.4741 10.3176 20.5415 9.93372 20.5415H5.81584V14.4793H9.93372C10.2478 14.4793 10.5619 14.513 10.876 14.614H10.9109C10.9457 14.614 10.9806 14.6477 11.0504 14.6477C11.3994 14.7824 11.7135 14.9508 11.9927 15.2202C12.2718 15.4896 12.5161 15.7927 12.6906 16.1632C12.7255 16.2642 12.7604 16.3653 12.7953 16.4663C12.9 16.7694 12.9349 17.1062 12.9349 17.4767C12.9698 18.0155 12.8651 18.487 12.6906 18.8238Z" fill="white"/>
<path d="M71.6317 10.0337H59.313C58.6499 10.0337 58.2311 10.3031 58.0218 10.5052C57.8124 10.7073 57.5332 11.1114 57.5332 11.7513V25.6943C57.5332 26.3342 57.8124 26.7384 58.0218 26.9404C58.2311 27.1425 58.6499 27.4119 59.313 27.4119H60.5344C61.1974 27.4119 61.5813 27.1425 61.8256 26.9404C62.035 26.7384 62.3141 26.3342 62.3141 25.6943V24.684H70.2009C70.864 24.684 71.2828 24.4145 71.4921 24.2124C71.7015 24.0104 71.9807 23.6062 71.9807 22.9663V21.956C71.9807 21.3161 71.7015 20.9119 71.4921 20.7099C71.2828 20.5078 70.864 20.2384 70.2009 20.2384H62.3141V14.513H71.6317C72.2948 14.513 72.7136 14.2435 72.9229 14.0415C73.1323 13.8394 73.4115 13.4352 73.4115 12.7953V11.785C73.4115 11.1451 73.1323 10.7746 72.9229 10.5389C72.6787 10.2694 72.2599 10.0337 71.6317 10.0337Z" fill="white"/>
<path d="M53.1026 12.5596C52.3 11.785 51.3229 11.1451 50.241 10.7073C49.1592 10.2358 47.9727 10.0337 46.7164 10.0337C45.4601 10.0337 44.2736 10.2694 43.1918 10.7073C42.11 11.1451 41.1677 11.785 40.3302 12.5596C39.5276 13.3342 38.8645 14.2772 38.4108 15.3213C37.9223 16.3653 37.7129 17.5104 37.7129 18.7228C37.7129 19.9352 37.9572 21.0803 38.4108 22.1244C38.8645 23.1684 39.5276 24.0777 40.3302 24.886C41.1328 25.6606 42.11 26.3005 43.1918 26.7384C44.2736 27.2099 45.4601 27.4119 46.7164 27.4119C47.9727 27.4119 49.1592 27.1762 50.241 26.7384C51.3229 26.3005 52.2651 25.6606 53.1026 24.886C53.9053 24.1114 54.5683 23.1684 55.022 22.1244C55.5105 21.0803 55.7199 19.9352 55.7199 18.7228C55.7199 17.5104 55.4756 16.3653 55.022 15.3213C54.5683 14.2772 53.9053 13.3679 53.1026 12.5596ZM50.7645 20.4404C50.5551 20.9793 50.241 21.4508 49.8572 21.8213C49.4733 22.1917 48.9847 22.5285 48.4613 22.7643C47.9378 23 47.3446 23.1011 46.7513 23.1011C46.1232 23.1011 45.5648 23 45.0413 22.7643C44.5179 22.5285 44.0293 22.2254 43.6454 21.8213C43.2616 21.4508 42.9475 20.9793 42.7381 20.4404C42.5287 19.9016 42.3891 19.329 42.3891 18.7228C42.3891 18.1166 42.4938 17.5441 42.7381 17.0052C42.9475 16.4663 43.2616 15.9948 43.6454 15.6244C44.0293 15.2202 44.5179 14.9171 45.0413 14.6814C45.5648 14.4456 46.1581 14.3446 46.7513 14.3446C47.3795 14.3446 47.9378 14.4456 48.4613 14.6814C48.9847 14.9171 49.4733 15.2202 49.8572 15.6244C50.241 15.9948 50.5551 16.4663 50.7645 17.0052C50.9739 17.5441 51.1135 18.1166 51.1135 18.7228C51.1135 19.329 51.0088 19.9016 50.7645 20.4404Z" fill="white"/>
<path d="M33.8392 12.0881C33.6647 11.9197 33.5251 11.785 33.3157 11.6503C32.9318 11.3472 32.4782 11.0777 31.9547 10.8083C31.9198 10.7746 31.8849 10.7746 31.8151 10.7409C31.7104 10.6736 31.6057 10.6399 31.4661 10.5726C30.5588 10.2021 29.5817 10.0337 28.5348 10.0337H21.311C20.648 10.0337 20.2292 10.3031 20.0198 10.5052C19.8104 10.7073 19.5312 11.1114 19.5312 11.7513V22.7979C19.5312 23.4378 19.8104 23.842 20.0198 24.0441C20.2292 24.2461 20.648 24.5156 21.311 24.5156H27.3134L28.0462 26.0648C28.116 26.1995 28.1858 26.3342 28.2905 26.4689C28.7093 27.0751 29.3025 27.3783 30.0354 27.3783H31.6406C32.4782 27.3783 32.862 26.9404 33.0016 26.671C33.1412 26.4352 33.2459 26.0985 33.1761 25.6606H33.2459L32.2339 23.5726C32.199 23.5389 32.199 23.5052 32.199 23.4715C32.2688 23.4378 32.3386 23.4042 32.4084 23.3368C32.4433 23.3031 32.4782 23.3031 32.4782 23.2694C33.4204 22.6969 34.223 21.9223 34.8512 20.9456C34.9908 20.7435 35.0955 20.5415 35.2002 20.3057C35.6538 19.3627 35.8981 18.285 35.8981 17.1399C35.8981 16.1295 35.7236 15.1865 35.3398 14.3109C35.0257 13.5026 34.5022 12.728 33.8392 12.0881ZM30.9427 18.3523C30.7682 18.7228 30.5588 19.0259 30.3145 19.2617L30.2447 19.329C30.0703 19.4974 29.8609 19.6321 29.5817 19.7669C29.5468 19.8005 29.5119 19.8005 29.477 19.8342C29.4421 19.8342 29.4421 19.8679 29.4421 19.8679C29.0931 20.0026 28.7442 20.07 28.3603 20.07H24.382V14.4793H28.3254C28.7093 14.4793 29.0582 14.5466 29.4072 14.6814C29.5468 14.715 29.6515 14.7824 29.826 14.8834C30.0354 14.9845 30.1749 15.1192 30.3145 15.2202C30.5588 15.456 30.7682 15.7254 30.9427 16.0622C31.0823 16.399 31.187 16.7694 31.187 17.1736C31.187 17.6114 31.1172 17.9819 30.9427 18.3523Z" fill="white"/>
<path d="M99.8633 15.1865C99.7935 14.8834 99.5492 14.4793 98.9908 14.1425L91.8369 10.2694C91.4879 10.0674 91.1389 10 90.7551 10C90.1618 10 89.743 10.2358 89.6383 10.2694L82.5193 14.1425C81.9609 14.4456 81.7166 14.8834 81.6468 15.1865C81.5771 15.4896 81.5422 15.9611 81.8562 16.5L82.3099 17.4093C82.624 17.9482 83.0776 18.1839 83.3917 18.2513C83.8454 18.386 84.299 18.3187 84.7527 18.0492L88.2773 16.1295V25.6943C88.2773 26.3342 88.5565 26.7383 88.7659 26.9404C88.9753 27.1425 89.3941 27.4119 90.0571 27.4119H91.2785C91.9416 27.4119 92.3603 27.1425 92.5697 26.9404C92.7791 26.7383 93.0583 26.3342 93.0583 25.6943V16.0959L96.6876 18.0492C97.1413 18.285 97.6298 18.3523 98.0486 18.2513C98.3627 18.1839 98.7815 17.9482 99.1304 17.4093L99.6539 16.5337C99.968 15.9611 99.9331 15.4896 99.8633 15.1865Z" fill="white"/>
<path d="M79.2744 16.8031C78.9603 16.5336 78.5067 16.3652 78.0181 16.3652H76.9712C76.4477 16.3652 76.0289 16.4999 75.7149 16.8031C75.4706 17.0051 75.1914 17.3756 75.1914 18.0155V25.7953C75.1914 26.4015 75.4706 26.8056 75.7149 27.0077C76.0289 27.3108 76.4826 27.4455 76.9712 27.4455H78.0181C78.5415 27.4455 78.9603 27.3108 79.2744 27.0077C79.5187 26.8056 79.7979 26.4352 79.7979 25.7953V18.0155C79.7979 17.4093 79.5187 17.0388 79.2744 16.8031Z" fill="white"/>
</g>
<defs>
<clipPath id="clip0_1_770">
<rect width="119" height="26" fill="white" transform="translate(1 10)"/>
</clipPath>
</defs>
</svg>
