<svg width="103" height="38" viewBox="0 0 103 38" fill="none" xmlns="http://www.w3.org/2000/svg">
<g clip-path="url(#clip0_638_4885)">
<path d="M66.3105 22.2678L70.8329 7.70703H68.6919L64.1523 22.2678H66.3105Z" fill="white"/>
<path d="M62.3261 22.2678L66.8485 7.70703H64.7075L60.168 22.2678H62.3261Z" fill="white"/>
<path d="M73.8273 18.3729C74.165 19.6616 75.1268 20.3404 76.5865 20.3404C77.9833 20.3404 78.8477 19.4948 78.8477 18.2118C78.8477 16.8081 77.7887 16.4629 76.306 15.7381C73.7643 14.4954 72.3675 13.5289 72.3675 11.3601C72.3675 9.04738 74.0677 7.42505 76.6667 7.42505C78.7847 7.42505 80.2445 8.28799 80.7826 9.79527L78.9622 10.7388C78.4012 9.8528 77.7429 9.43283 76.8441 9.43283C75.5847 9.43283 74.8062 10.1577 74.8062 11.2393C74.8062 12.6257 75.9282 13.0457 77.5253 13.7936C80.0442 14.9614 81.2234 15.9855 81.2234 18.0508C81.2234 20.7201 79.4431 22.4921 76.4835 22.4921C74.0448 22.4921 72.4477 21.3242 71.9668 19.2359L73.8273 18.3729Z" fill="white"/>
<path d="M88.3852 22.1125H86.0667V9.73784H82.2656V7.74731H92.1634V9.73784H88.3852V22.1125Z" fill="white"/>
<path d="M32.3949 22.1125H30.0708V9.73784H26.2754V7.74731H36.1731V9.73784H32.3949V22.1125Z" fill="white"/>
<path d="M39.9916 22.1125H37.8105V7.74731H41.0506C42.5905 7.74731 43.7297 7.86813 44.6113 8.55273C45.47 9.23733 45.9909 10.3592 45.9909 11.7054C45.9909 14.018 44.8689 15.324 42.7108 15.5828L47.6282 22.1125H45.0063L40.2492 15.6806H39.9916V22.1125ZM40.5526 13.8742C42.5906 13.8742 43.6095 13.6326 43.6095 11.9067C43.6095 10.1405 42.6306 9.7551 40.5526 9.7551H40.1347V13.8742H40.5526Z" fill="white"/>
<path d="M49.901 7.74731V16.4688C49.901 19.0576 51.1032 20.3636 53.4617 20.3636C55.8202 20.3636 57.0224 19.0576 57.0224 16.4688V7.74731H59.3408V16.6874C59.3408 20.5649 57.4002 22.4922 53.4617 22.4922C49.5232 22.4922 47.6055 20.5649 47.6055 16.6874V7.74731H49.901Z" fill="white"/>
<path d="M30.9062 31.0873H29.9102V24.5461H31.3012H31.513C32.1771 24.5461 32.7037 24.5634 33.1445 24.8856C33.5452 25.179 33.7971 25.7197 33.7971 26.3468C33.7971 26.9796 33.5395 27.5262 33.1445 27.8196C32.7095 28.1302 32.1771 28.1475 31.513 28.1475H31.3012H30.9005V31.0873H30.9062ZM31.2383 27.2846C32.2114 27.2846 32.7037 27.1752 32.7037 26.4159C32.7037 25.6277 32.2229 25.4666 31.2383 25.4666H30.9635V27.2846H31.2383Z" fill="white"/>
<path d="M39.7548 29.4075H37.1787L36.4231 31.0931H35.3125L38.461 24.2988L41.6095 31.0931H40.4875L39.7548 29.4075ZM39.3827 28.5157L38.7186 27.0257C38.6442 26.8531 38.564 26.6173 38.4725 26.2836C38.3923 26.6115 38.3064 26.8531 38.2377 27.0257L37.5737 28.5157H39.3827Z" fill="white"/>
<path d="M45.1925 28.0957L43 24.5461H44.1048L45.4673 26.7668C45.4959 26.8128 45.5932 26.9854 45.7421 27.2903C45.8222 27.0774 45.9138 26.8991 46.0168 26.7438L47.4194 24.5461H48.4727L46.2344 28.0957V31.0873H45.1925V28.0957Z" fill="white"/>
<path d="M56.5212 26.9622C56.464 27.2729 56.3667 27.5663 56.2178 27.8655L54.5176 31.3517L52.8174 27.7907C52.6915 27.526 52.5827 27.2499 52.4969 26.9565C52.4854 27.2671 52.4396 27.5721 52.3766 27.8597L51.6783 31.0814H50.7051L52.245 24.2871L54.1684 28.3947C54.2257 28.5155 54.3402 28.8089 54.5234 29.2807C54.6493 28.9125 54.7981 28.6248 54.8955 28.3947L56.7731 24.2871L58.3474 31.0814H57.3627L56.6414 27.8539C56.6128 27.7389 56.5842 27.4455 56.5212 26.9622Z" fill="white"/>
<path d="M61.6191 24.5461H65.2542V25.4551H62.6725V27.089H65.2542V28.0267H62.6725V30.138H65.2542V31.0873H61.6191V24.5461Z" fill="white"/>
<path d="M68.75 24.2927L72.8831 28.291C73.1465 28.5499 73.3754 28.8146 73.593 29.0849V24.5459H74.5661V31.3401L70.3529 27.267C70.1182 27.0369 69.9064 26.7895 69.7232 26.5364V31.0812H68.75V24.2927Z" fill="white"/>
<path d="M80.4462 31.0873H79.3929V25.4551H77.6641V24.5461H82.1693V25.4551H80.4462V31.0873Z" fill="white"/>
<path d="M85.1851 29.3901C85.3397 29.9769 85.7748 30.2875 86.4388 30.2875C87.0742 30.2875 87.4692 29.9021 87.4692 29.3153C87.4692 28.6767 86.9884 28.5214 86.3129 28.1877C85.1565 27.6181 84.5211 27.1809 84.5211 26.1914C84.5211 25.1386 85.2939 24.3965 86.4789 24.3965C87.4463 24.3965 88.1104 24.7877 88.3565 25.478L87.5265 25.9095C87.2689 25.5068 86.9712 25.317 86.559 25.317C85.9866 25.317 85.6316 25.6449 85.6316 26.1396C85.6316 26.7725 86.1411 26.9623 86.8681 27.3017C88.0131 27.831 88.5512 28.297 88.5512 29.2405C88.5512 30.4544 87.7383 31.2598 86.393 31.2598C85.2824 31.2598 84.5554 30.7305 84.3379 29.7755L85.1851 29.3901Z" fill="white"/>
<path d="M19.21 2.00586L8.63672 35.9483H13.6629L96.6918 35.9771V2.00586H19.21ZM95.8904 35.1659H13.9033L23.9556 2.81127H95.8847V35.1659H95.8904Z" fill="white"/>
<path d="M11.5735 2.00586L1.01172 35.9483H6.03788L16.5711 2.00586H11.5735Z" fill="white"/>
<path d="M99.8299 2.00586C100.385 2.00586 100.883 2.23023 101.244 2.59266C101.605 2.9551 101.828 3.46136 101.828 4.01364C101.828 4.57168 101.605 5.07219 101.244 5.43462C100.883 5.79706 100.379 6.02143 99.8299 6.02143C99.2746 6.02143 98.7766 5.79706 98.4159 5.43462C98.0553 5.07219 97.832 4.56593 97.832 4.01364C97.832 3.45561 98.0553 2.9551 98.4159 2.59266C98.7709 2.23023 99.2746 2.00586 99.8299 2.00586ZM101.049 2.78826C100.734 2.47185 100.305 2.27625 99.8242 2.27625C99.3433 2.27625 98.914 2.47185 98.5991 2.78826C98.2843 3.10467 98.0896 3.53615 98.0896 4.0194C98.0896 4.50264 98.2843 4.93412 98.5991 5.25053C98.914 5.56694 99.3433 5.76254 99.8242 5.76254C100.305 5.76254 100.734 5.56694 101.049 5.25053C101.364 4.93412 101.559 4.50264 101.559 4.0194C101.559 3.53615 101.364 3.09892 101.049 2.78826Z" fill="white"/>
<path d="M98.9198 5.07217H99.3835V4.39907H99.7384H99.7441L100.196 5.07217H100.734L100.219 4.31853C100.311 4.28401 100.385 4.23799 100.454 4.18046C100.523 4.12293 100.574 4.04814 100.609 3.96185C100.649 3.87555 100.666 3.77775 100.666 3.66269V3.65694C100.666 3.55914 100.649 3.46709 100.62 3.38655C100.591 3.30601 100.546 3.23697 100.488 3.17369C100.42 3.10466 100.334 3.05288 100.231 3.01261C100.128 2.97809 100.007 2.95508 99.8758 2.95508H98.9141V5.07217H98.9198ZM99.3835 3.98486V3.3808H99.8414C99.9159 3.3808 99.9788 3.3923 100.036 3.41532C100.088 3.43833 100.133 3.47284 100.162 3.51312C100.191 3.55914 100.208 3.61092 100.208 3.67995V3.6857C100.208 3.74323 100.196 3.79501 100.168 3.84103C100.139 3.88706 100.099 3.92158 100.048 3.94459C99.996 3.9676 99.933 3.97911 99.8529 3.98486H99.3835Z" fill="white"/>
</g>
<defs>
<clipPath id="clip0_638_4885">
<rect width="100.867" height="34" fill="white" transform="translate(1 2)"/>
</clipPath>
</defs>
</svg>
