<svg width="800" height="534" viewBox="0 0 800 534" fill="none" xmlns="http://www.w3.org/2000/svg">
<path d="M746.667 533.333H53.3333C23.8889 533.333 0 509.444 0 480V53.3333C0 23.8889 23.8889 0 53.3333 0H746.667C776.111 0 800 23.8889 800 53.3333V480C800 509.444 776.111 533.333 746.667 533.333ZM396.444 328.044L388.467 378.044C406.022 385.556 426.444 389.933 447.889 389.933C449.6 389.933 451.289 389.911 452.978 389.844H452.733C454.689 389.956 456.956 390.022 459.267 390.022C483.911 390.022 506.756 382.289 525.511 369.111L525.133 369.356C542.156 356.733 553.089 336.711 553.089 314.133C553.089 314.022 553.089 313.911 553.089 313.8C553.089 289.356 536.733 269.067 504.489 253.378C495.022 248.756 486.933 243.911 479.333 238.444L479.844 238.8C475.444 235.911 472.511 231.133 472.222 225.644V225.6C472.578 219.822 475.889 214.889 480.644 212.267L480.733 212.222C487 208.578 494.511 206.422 502.556 206.422C503.489 206.422 504.422 206.444 505.356 206.511H505.222H507C507.511 206.511 508.111 206.489 508.711 206.489C523.022 206.489 536.6 209.578 548.844 215.111L548.222 214.867L553.422 217.644L561.4 169.4C546.4 163.467 529 160.022 510.8 160.022C510.444 160.022 510.067 160.022 509.711 160.022H509.778C508.356 159.956 506.689 159.911 505.022 159.911C480.667 159.911 458.089 167.622 439.622 180.733L439.978 180.489C423.267 192.4 412.489 211.689 412.489 233.511V233.622C412.267 257.133 429.2 277.444 462.844 294.067C471.733 297.956 479.4 302.711 486.267 308.422L486.111 308.289C490 311.578 492.511 316.4 492.711 321.8V321.844V321.889C492.711 328.978 488.489 335.067 482.4 337.8L482.289 337.844C475.622 341.356 467.711 343.4 459.311 343.4C458.978 343.4 458.622 343.4 458.289 343.4H458.333C457.844 343.4 457.244 343.4 456.667 343.4C437.622 343.4 419.578 339.178 403.4 331.622L404.178 331.956L396.556 328.133L396.444 328.044ZM621.444 353.4H695.111C696.296 358.481 698.615 369.593 702.067 386.733H755.556L709.022 163.822H664.578C663.8 163.756 662.889 163.711 661.956 163.711C649.467 163.711 638.778 171.444 634.422 182.378L634.356 182.578L549.022 386.733H609.467L621.6 353.422L621.444 353.4ZM330.911 163.822L294.778 386.733H352.422L388.533 163.822H330.911ZM109.378 209.311L156.267 386.378H217.022L307.578 163.822H246.556L190.244 315.911L184.333 285L164.244 182.578C162.222 171.711 152.822 163.578 141.511 163.578C140.356 163.578 139.2 163.667 138.089 163.822L138.222 163.8H45.1778L44.4889 168.311C116.133 186.511 163.2 225.778 184.4 284.978C177.533 267.378 167.511 252.378 154.933 240L154.911 239.978C142.311 227.044 127.178 216.667 110.311 209.578L109.422 209.244L109.378 209.311ZM685.756 307.556H637.756C641 298.993 648.644 278.252 660.689 245.333L661.711 242.2C662.644 239.889 663.8 236.867 665.267 233.178C666.733 229.489 667.711 226.467 668.378 224.156L672.556 243.244L685.733 307.467L685.756 307.556Z" fill="black"/>
</svg>
