<svg width="161" height="46" viewBox="0 0 161 46" fill="none" xmlns="http://www.w3.org/2000/svg">
<g clip-path="url(#clip0_1_812)">
<path d="M72.4664 23.5029H66.7668C66.7322 23.765 66.6315 24.2243 66.4649 24.8806C66.3661 25.3338 66.2248 25.7763 66.043 26.2021L66.2053 26.4103H72.6287C72.7423 25.4992 72.9827 24.6093 73.3428 23.7672L73.1383 23.5062L72.4664 23.5029Z" fill="white"/>
<path d="M22.9725 14.7012C23.1108 14.5476 23.2962 14.4463 23.4983 14.4137C23.5503 14.4137 23.745 14.3906 24.0858 14.3741L24.1929 14.2585V13.4193L24.0858 13.2938L23.4367 13.3136V13.2938L21.1159 13.3664C20.7459 13.3664 20.1876 13.3301 19.4346 13.2938L19.4086 13.3235L18.7595 13.2938L18.6426 13.4325V14.2519L18.7497 14.3807C19.3989 14.4336 19.7819 14.4699 19.9052 14.4996C19.9816 14.5082 20.0556 14.5322 20.1227 14.5702C20.1899 14.6082 20.2489 14.6595 20.2964 14.7211C20.3439 14.7826 20.3788 14.8531 20.3991 14.9286C20.4194 15.004 20.4248 15.0828 20.4148 15.1604C20.3742 15.6197 20.3027 16.0756 20.2006 16.5249L18.529 24.411C16.746 19.1425 15.5126 15.3597 14.8288 13.0625H13.1604C13.0241 13.503 12.8369 14.0646 12.5989 14.7474L11.3233 18.4245C10.7748 19.9773 10.3496 21.1336 10.0899 21.9067L9.16808 24.5497L8.76235 22.3263C8.4897 20.8165 8.29495 19.7229 8.18784 19.0489L7.81782 16.69C7.7226 16.1577 7.65435 15.6206 7.61333 15.0811C7.59983 14.9129 7.64588 14.7453 7.74316 14.6087C7.89667 14.4849 8.08614 14.4163 8.28197 14.4137C8.35013 14.4137 8.62603 14.3873 9.11614 14.3609L9.22326 14.2453V13.4193L9.11614 13.2938L8.46698 13.3169L8.44751 13.2938C7.16541 13.34 6.14947 13.3631 5.3932 13.3698C4.74403 13.3698 3.89363 13.34 2.79654 13.2938L2.77382 13.3202L2.12466 13.2938L2.00781 13.4325V14.2519L2.11168 14.3675C2.39608 14.3813 2.67917 14.4155 2.95884 14.4699C3.22499 14.5393 3.43272 14.8465 3.57554 15.3851C3.63613 15.6053 3.73675 16.0976 3.8774 16.8618L6.54546 31.6066H8.79156L9.2687 30.1926C9.77072 28.6838 10.1624 27.5363 10.4437 26.75L12.9105 19.8121L13.0176 20.1425L13.6343 21.9794C14.4047 24.292 15.2486 26.9141 16.1661 29.8457L16.7146 31.6198H19.0418C19.0938 31.1044 19.321 29.9294 19.7235 28.0947L20.6972 23.6511C21.13 21.6688 21.4654 20.1766 21.7034 19.1745C22.1708 17.2054 22.4954 15.9379 22.6772 15.3718C22.7358 15.1335 22.8395 14.9091 22.9823 14.7111L22.9725 14.7012Z" fill="white"/>
<path d="M64.7504 27.0107H64.1012L63.9681 27.1363L63.7085 28.7353C63.6786 28.9998 63.6097 29.2582 63.504 29.5018C63.461 29.5668 63.4 29.6174 63.3287 29.6471C62.8548 29.8454 61.5641 29.9434 59.4565 29.9412H58.6612C58.6223 28.8873 58.6061 27.8003 58.6061 26.677V19.0024C58.5768 17.6726 58.6234 16.3423 58.7456 15.018C58.7521 14.9093 58.791 14.8053 58.8571 14.7197C58.9232 14.6341 59.0134 14.571 59.1157 14.539C59.5349 14.4725 59.9576 14.4306 60.3815 14.4134L60.4886 14.2978V13.4124L60.3978 13.2935C60.2063 13.2935 59.992 13.3166 59.7486 13.3265L59.7194 13.2935C59.0085 13.343 57.9894 13.3661 56.6748 13.3727C55.3603 13.3794 54.4222 13.343 53.7536 13.2935L53.7211 13.3298C53.4842 13.3298 53.2699 13.3067 53.072 13.2935L52.9648 13.4124V14.2846L53.072 14.4134C53.4959 14.4314 53.9185 14.4734 54.3378 14.539C54.4386 14.5726 54.5271 14.6362 54.592 14.7216C54.6568 14.807 54.6949 14.9103 54.7014 15.018C54.8271 16.342 54.8737 17.6726 54.8409 19.0024V25.5174L54.8085 28.4016C54.8337 28.9725 54.7945 29.5445 54.6916 30.1064C54.442 30.4014 54.1511 30.6575 53.8282 30.8662L53.773 31.0182V31.3816L53.8834 31.5105C54.0554 31.4939 54.2697 31.4807 54.5326 31.4708L54.5683 31.5105C55.0324 31.4675 55.7887 31.4411 56.8403 31.4345L64.5459 31.5105H65.2113L65.3217 31.3816C65.3024 29.9634 65.3718 28.5455 65.5294 27.1363L65.4093 27.0107H64.7504Z" fill="white"/>
<path d="M27.5943 24.4643L29.4833 18.729L31.4535 24.4643C30.9569 24.4941 30.3207 24.4941 29.5612 24.4941C28.8017 24.4941 28.1136 24.4776 27.6137 24.4544L27.5943 24.4643ZM37.8575 30.2625C37.6757 30.1865 37.4713 29.8462 37.2505 29.235L31.5087 13.2051H29.3015C28.8796 14.5266 28.5615 15.4979 28.3505 16.1487L25.5364 24.5436C24.435 27.8144 23.7988 29.6006 23.6279 29.9023C23.4591 30.2063 23.0047 30.3814 22.2614 30.4276L22.1445 30.5598V31.3924L22.2516 31.5113L22.9008 31.4849L22.9268 31.5113C23.7923 31.4716 24.4242 31.4474 24.8223 31.4386C25.2854 31.4386 26.019 31.4628 27.023 31.5113L27.0425 31.4882L27.6916 31.5113L27.7987 31.3824V30.5598L27.6916 30.4276C27.3223 30.4152 26.9538 30.3821 26.588 30.3285C26.517 30.3247 26.4473 30.3067 26.3832 30.2753C26.319 30.244 26.2615 30.2 26.2142 30.1459C26.1668 30.0919 26.1304 30.0288 26.1071 29.9603C26.0838 29.8919 26.0741 29.8194 26.0785 29.7471C26.1839 28.9847 26.3655 28.2353 26.6205 27.5104L27.0976 25.9444C27.9805 25.9444 28.6816 25.9213 29.2172 25.918C30.1584 25.918 31.0803 25.918 31.9858 25.9444L32.859 28.6568C33.0066 29.0462 33.108 29.4521 33.1608 29.866C33.1608 30.1733 32.9628 30.3417 32.5668 30.3682L31.6256 30.4276L31.5087 30.573V31.3824L31.6061 31.5113L32.2552 31.4882L32.2747 31.5113C33.2809 31.465 34.365 31.4419 35.5205 31.4353C35.9685 31.4353 36.8578 31.4683 38.2016 31.5113V31.4915L38.8507 31.5113L38.9449 31.3824V30.5598L38.8507 30.421C38.5019 30.4376 38.1533 30.3837 37.8251 30.2625H37.8575Z" fill="white"/>
<path d="M51.3266 27.0107H50.6774L50.5703 27.1495L50.3139 28.7485C50.2835 29.0133 50.2134 29.2718 50.1062 29.515C50.0645 29.5799 50.0045 29.6306 49.9341 29.6604C49.4581 29.8586 48.1673 29.9566 46.0619 29.9544H45.2634C45.2266 28.9016 45.2082 27.8135 45.2082 26.6903V19.0024C45.179 17.6726 45.2256 16.3423 45.3478 15.018C45.3552 14.9096 45.3944 14.806 45.4604 14.7205C45.5264 14.6351 45.6161 14.5719 45.7178 14.539C46.1371 14.4727 46.5597 14.4308 46.9837 14.4134L47.0908 14.2978V13.4124L46.9837 13.2935C46.7922 13.2935 46.578 13.3166 46.3345 13.3265L46.3021 13.2935C45.5912 13.343 44.5753 13.3661 43.2607 13.3727C41.9462 13.3794 41.0049 13.343 40.3395 13.2935L40.3071 13.3298C40.0701 13.3298 39.8591 13.3067 39.6579 13.2935L39.5508 13.4124V14.2846L39.6579 14.4134C40.0818 14.4312 40.5044 14.4731 40.9238 14.539C41.0249 14.5724 41.1139 14.6359 41.1793 14.7213C41.2447 14.8067 41.2834 14.91 41.2905 15.018C41.4145 16.3422 41.4611 17.6726 41.4301 19.0024V25.5174L41.3976 28.4016C41.4123 28.9751 41.3611 29.5483 41.2451 30.1097C40.9976 30.4068 40.7063 30.6631 40.3817 30.8695L40.3265 31.0215V31.3849L40.4369 31.5138C40.6089 31.4973 40.8231 31.484 41.086 31.4741L41.1218 31.5138C41.5859 31.4708 42.3422 31.4444 43.3938 31.4378L51.0961 31.5138H51.7453L51.8557 31.3849C51.8503 29.9647 51.9338 28.5457 52.1056 27.1363L51.9887 27.0107H51.3266Z" fill="white"/>
<path d="M143.073 27.0107H142.424L142.316 27.1495L142.057 28.7485C142.027 29.013 141.958 29.2714 141.852 29.515C141.809 29.58 141.748 29.6306 141.677 29.6603C141.201 29.8586 139.91 29.9566 137.805 29.9544H137C136.961 28.9005 136.945 27.8135 136.945 26.6903V22.7654C137.295 22.7356 137.675 22.7191 138.071 22.7125C138.467 22.7059 138.808 22.7356 139.145 22.7654C139.733 22.8281 140.08 22.9504 140.197 23.1354C140.314 23.3204 140.369 23.9019 140.369 24.8897L140.479 25.0185H141.868L141.976 24.9029C141.95 23.8721 141.933 22.9207 141.933 22.0617C141.933 21.2655 141.95 20.3834 141.976 19.4187L141.868 19.2865H140.525L140.418 19.4187C140.382 20.4098 140.307 20.9979 140.19 21.1498C140.074 21.3018 139.729 21.3348 139.067 21.3448H138.061C137.737 21.3448 137.376 21.315 136.938 21.282V18.639C136.938 17.0465 136.977 15.7944 137.055 14.8958C137.607 14.8462 138.149 14.8231 138.678 14.8132C139.11 14.8132 139.583 14.8594 140.113 14.909C140.807 14.9784 141.193 15.0709 141.271 15.1931C141.349 15.3154 141.437 16.0191 141.443 17.1754L141.554 17.3042H142.193L142.213 17.2778L142.235 17.3042H142.865L142.972 17.1622L143.047 15.9695C143.066 15.6501 143.099 15.2636 143.144 14.8099L143.284 13.386L143.167 13.2935H142.518C139.041 13.343 136.594 13.3661 135.163 13.3727C133.793 13.3727 132.761 13.343 132.082 13.2935L132.053 13.3298C131.813 13.3298 131.599 13.3067 131.404 13.2935L131.297 13.4124V14.2846L131.404 14.4134C131.828 14.431 132.251 14.4729 132.67 14.539C132.771 14.572 132.86 14.6354 132.926 14.7209C132.991 14.8063 133.03 14.9099 133.037 15.018C133.162 16.342 133.209 17.6726 133.176 19.0024V25.5174L133.144 28.4016C133.17 28.9727 133.129 29.5449 133.024 30.1064C132.777 30.4029 132.487 30.6592 132.164 30.8662L132.105 31.0182V31.3816L132.215 31.5105C132.387 31.4939 132.605 31.4807 132.865 31.4708L132.904 31.5105C133.368 31.4675 134.124 31.4411 135.176 31.4345L142.881 31.5105H143.547L143.657 31.3816C143.633 29.9637 143.698 28.5458 143.852 27.1363L143.732 27.0107H143.073Z" fill="white"/>
<path d="M83.8553 21.2793C83.4781 21.1087 83.0827 20.9834 82.6771 20.9059C81.9825 20.7573 81.5638 20.6747 81.4112 20.6482C79.9603 20.3707 79.0418 20.0866 78.6555 19.7893C78.0561 19.3245 77.7564 18.5999 77.7564 17.6154C77.7234 16.7971 78.0078 15.9985 78.5484 15.3919C79.0511 14.8557 79.7362 14.5354 80.4634 14.4966C81.0022 14.5319 81.5291 14.6732 82.0149 14.9129C82.4964 15.1307 82.9032 15.4896 83.1834 15.9437C83.2573 16.6095 83.2931 17.2791 83.2905 17.9491L83.4009 18.0746H84.7382L84.8615 17.9491C84.8787 16.7175 84.9818 15.4887 85.1699 14.272L85.0952 13.9647C84.0609 13.3194 82.6998 12.9978 81.012 13C80.9211 13 80.8335 13 80.7458 13C80.6582 13 80.4764 13 80.3401 13C78.464 13 76.9991 13.5506 75.9453 14.6519C74.9715 15.6959 74.4554 17.0967 74.4554 18.8543C74.4554 20.5458 74.9131 21.7925 75.8284 22.5942C76.4365 23.1272 77.7012 23.5677 79.6228 23.9157C80.2736 23.9996 80.9057 24.1951 81.4924 24.4938C82.2649 24.963 82.6511 25.7493 82.6511 26.8461C82.6515 27.5017 82.5062 28.1489 82.2259 28.7392C81.9967 29.2583 81.6258 29.6996 81.1575 30.0105C80.6892 30.3215 80.143 30.4891 79.5838 30.4935C78.9371 30.4351 78.3115 30.2296 77.7532 29.8922C77.1567 29.5774 76.6695 29.0839 76.3575 28.4782C76.2807 27.8478 76.2373 27.2137 76.2276 26.5785V26.2812L76.1303 26.1523H74.767L74.6599 26.2812C74.6883 27.6877 74.585 29.0937 74.3516 30.4803L74.4781 30.7644C75.8343 31.56 77.3694 31.9857 78.9346 32C79.071 32 79.2073 32 79.3404 32H79.6065C80.6892 32.0283 81.7641 31.8082 82.7517 31.3558C83.706 30.8891 84.5083 30.1528 85.0627 29.2348C85.7588 28.1141 86.1176 26.8106 86.0949 25.485C86.1276 24.5394 85.922 23.6011 85.4977 22.7594C85.1271 22.0923 84.5494 21.5694 83.8553 21.2727V21.2793Z" fill="white"/>
<path d="M158.888 13.2412C158.736 13.2643 158.525 13.2809 158.265 13.2974L158.22 13.2412C157.584 13.3293 156.033 13.3734 153.569 13.3734H149.859C147.186 13.3734 145.636 13.3293 145.207 13.2412L145.162 13.304C144.952 13.2956 144.743 13.2746 144.535 13.2412L144.441 13.3734C144.519 14.0081 144.562 14.6467 144.571 15.2862L144.591 17.4833L144.711 17.6154H146.064L146.171 17.4833C146.188 17.0075 146.22 16.5384 146.272 16.0858C146.283 15.8035 146.338 15.5248 146.434 15.2598C146.491 15.1707 146.574 15.1024 146.671 15.0649C146.889 14.9757 147.645 14.9261 148.927 14.9261H149.803C149.826 15.1937 149.836 16.3831 149.836 18.5008V25.8154C149.864 27.1385 149.818 28.4622 149.696 29.7799C149.692 29.889 149.654 29.994 149.588 30.0804C149.522 30.1667 149.432 30.2303 149.329 30.2623C148.912 30.3346 148.49 30.3787 148.067 30.3944L147.956 30.5199V31.3921L148.057 31.5111L148.706 31.4747L148.739 31.5111C149.362 31.4648 150.362 31.4384 151.728 31.4351C153.095 31.4318 154.068 31.4648 154.724 31.5111L154.756 31.478C154.997 31.478 155.211 31.4979 155.406 31.5111L155.516 31.3822V30.5199L155.406 30.3944C154.982 30.3785 154.561 30.3343 154.143 30.2623C154.036 30.2344 153.941 30.1726 153.871 30.0859C153.801 29.9991 153.76 29.892 153.754 29.7799C153.63 28.4623 153.584 27.1385 153.614 25.8154V18.5008C153.614 16.4194 153.614 15.2301 153.633 14.9261H154.409C155.621 14.9261 156.299 14.9394 156.444 14.9658C156.608 14.9786 156.764 15.0445 156.888 15.1539C157.013 15.2633 157.099 15.4104 157.136 15.5737C157.21 16.213 157.25 16.856 157.256 17.4998L157.373 17.6187H158.742L158.849 17.4866L158.869 15.3424C158.875 14.6881 158.922 14.0349 159.008 13.3866L158.901 13.2577L158.888 13.2412Z" fill="white"/>
<path d="M129.646 27.011H128.997L128.88 27.1365L128.623 28.7355C128.591 29 128.521 29.2582 128.416 29.502C128.373 29.5677 128.312 29.6185 128.24 29.6474C127.767 29.8456 126.476 29.9436 124.368 29.9414H123.573C123.536 28.8886 123.518 27.8006 123.518 26.6773V22.7656C123.868 22.7359 124.248 22.7194 124.644 22.7128C125.04 22.7062 125.381 22.7359 125.722 22.7656C126.309 22.8284 126.653 22.9506 126.773 23.1356C126.893 23.3207 126.942 23.9021 126.942 24.8899L127.052 25.0188H128.448L128.555 24.9032C128.529 23.8724 128.516 22.9209 128.516 22.0619C128.516 21.2657 128.516 20.3836 128.555 19.4189L128.448 19.2867H127.104L126.997 19.4189C126.962 20.41 126.887 20.9981 126.773 21.1501C126.66 21.302 126.312 21.3351 125.647 21.345H124.644C124.319 21.345 123.956 21.3153 123.518 21.2822V18.6392C123.518 17.0468 123.56 15.7947 123.635 14.896C124.186 14.8465 124.732 14.8233 125.257 14.8134C125.686 14.8134 126.163 14.8597 126.689 14.9092C127.383 14.9786 127.77 15.0711 127.848 15.1934C127.926 15.3156 128.016 16.0193 128.023 17.1756L128.133 17.3045H128.76L128.782 17.2781L128.805 17.3045H129.432L129.539 17.1624L129.613 15.9698C129.636 15.6394 129.669 15.2627 129.714 14.8101L129.854 13.3994L129.733 13.2937H129.084C125.609 13.3444 123.159 13.3708 121.733 13.373C120.363 13.373 119.331 13.3433 118.652 13.2937L118.62 13.33C118.38 13.33 118.165 13.3069 117.971 13.2937L117.864 13.4126V14.2848L117.971 14.4137C118.395 14.4315 118.817 14.4734 119.237 14.5392C119.338 14.5724 119.426 14.6359 119.491 14.7214C119.556 14.8069 119.594 14.9104 119.6 15.0183C119.727 16.3422 119.775 17.6728 119.743 19.0026V25.5177L119.707 28.4019C119.731 28.9728 119.692 29.5446 119.59 30.1066C119.343 30.4037 119.052 30.6601 118.727 30.8665L118.672 31.0184V31.3819L118.782 31.5107C118.954 31.4942 119.168 31.481 119.431 31.4711L119.467 31.5107C119.931 31.4678 120.687 31.4413 121.739 31.4347L129.441 31.5107H130.107L130.217 31.3819C130.198 29.9637 130.267 28.5457 130.425 27.1365L130.308 27.011H129.646Z" fill="white"/>
<path d="M116.719 30.2388C116.394 29.9877 115.745 28.9636 114.771 27.163L113.106 24.1169C112.703 23.3813 112.32 22.6534 111.957 21.9331C114.166 20.9552 115.27 19.3033 115.268 16.9775C115.277 16.4726 115.211 15.9691 115.073 15.4842C114.958 15.0808 114.757 14.7082 114.484 14.393C114.212 14.0777 113.874 13.8276 113.495 13.6605C112.911 13.3962 111.996 13.2607 110.746 13.2607H110.058C109.523 13.2607 108.705 13.2872 107.617 13.34C107.124 13.3632 106.485 13.3764 105.722 13.3797C104.423 13.3797 103.456 13.3532 102.82 13.3004L102.788 13.3367C102.547 13.3367 102.333 13.3136 102.138 13.3004L102.031 13.4193V14.2849L102.138 14.4138C102.562 14.4318 102.985 14.4737 103.404 14.5393C103.505 14.5729 103.594 14.6365 103.658 14.7219C103.723 14.8073 103.761 14.9106 103.768 15.0183C103.894 16.3424 103.94 17.6729 103.907 19.0027V25.8151C103.945 27.1379 103.903 28.4618 103.784 29.7796C103.778 29.887 103.74 29.99 103.675 30.0749C103.61 30.1599 103.521 30.2228 103.42 30.2554C103.002 30.3269 102.579 30.371 102.155 30.3875L102.047 30.513V31.3852L102.155 31.5042L102.804 31.4678L102.839 31.5042C103.456 31.4579 104.462 31.4315 105.826 31.4282C107.189 31.4249 108.159 31.4579 108.825 31.5042L108.851 31.4711C109.094 31.4711 109.308 31.491 109.5 31.5042L109.597 31.3753V30.5197L109.493 30.3941C109.069 30.3788 108.646 30.3347 108.228 30.262C108.121 30.2335 108.027 30.1714 107.957 30.0848C107.888 29.9981 107.847 29.8913 107.841 29.7796C107.718 28.462 107.672 27.1382 107.702 25.8151V19.082C107.702 17.0557 107.737 15.624 107.809 14.7871C108.065 14.738 108.324 14.7093 108.585 14.7012C109.095 14.7035 109.598 14.8209 110.058 15.0448C110.967 15.5514 111.421 16.5282 111.421 17.9752C111.44 18.7187 111.28 19.4556 110.957 20.1227C110.731 20.6242 110.381 21.0578 109.941 21.3814C109.435 21.6738 108.857 21.8115 108.276 21.7779H107.909L107.786 22.2008C108.039 22.4293 108.258 22.6942 108.435 22.987L109.633 25.1543L112.33 30.48C112.513 30.8025 112.651 31.1495 112.739 31.5108L113.388 31.4711C113.389 31.4843 113.389 31.4976 113.388 31.5108C113.973 31.4744 114.437 31.448 114.791 31.4381L116.319 31.4976H116.728L116.748 31.4744H116.991H117.403L117.507 31.3456V30.5593L117.403 30.4271C117.158 30.4438 116.914 30.3776 116.709 30.2388H116.719Z" fill="white"/>
<path d="M100.843 13.2974L100.798 13.2412C100.164 13.3293 98.6144 13.3734 96.1498 13.3734H92.4398C89.7674 13.3734 88.217 13.3293 87.7885 13.2412L87.7431 13.304C87.5332 13.2973 87.3239 13.2763 87.1167 13.2412L87.0193 13.3734C87.0999 14.0078 87.1432 14.6466 87.1491 15.2862L87.1718 17.4833L87.2887 17.6154H88.6325L88.7396 17.4833C88.7396 17.0075 88.7883 16.5384 88.8369 16.0858C88.8518 15.8039 88.9064 15.5258 88.9992 15.2598C89.0574 15.1723 89.1399 15.1045 89.2362 15.0649C89.4536 14.9757 90.2099 14.9261 91.5082 14.9261H92.3846C92.4041 15.1937 92.4171 16.3831 92.4171 18.5008V25.8154C92.4455 27.1385 92.3989 28.4622 92.2775 29.7799C92.2708 29.8881 92.2318 29.9917 92.1657 30.0767C92.0995 30.1618 92.0095 30.2242 91.9075 30.2556C91.4899 30.3277 91.0681 30.3719 90.6449 30.3878L90.5345 30.5133V31.3855L90.6351 31.5045L91.2843 31.4681L91.3135 31.5045C91.9399 31.4582 92.9364 31.4318 94.3061 31.4285C95.6759 31.4252 96.6431 31.4582 97.302 31.5045L97.3312 31.4714C97.5714 31.4714 97.7889 31.4913 97.9804 31.5045L98.0908 31.3756V30.5199L97.9804 30.3944C97.5571 30.3785 97.1354 30.3343 96.7178 30.2623C96.6118 30.2333 96.5175 30.1711 96.4481 30.0846C96.3788 29.998 96.338 29.8914 96.3315 29.7799C96.2101 28.4622 96.1635 27.1385 96.192 25.8154V18.5008C96.192 16.4194 96.192 15.2301 96.2147 14.9261H96.9904C98.2022 14.9261 98.8795 14.9394 99.0223 14.9658C99.1865 14.9789 99.3423 15.0449 99.4672 15.1542C99.592 15.2635 99.6795 15.4104 99.7169 15.5737C99.7909 16.213 99.8299 16.856 99.8338 17.4998L99.9539 17.6187H101.307L101.414 17.4866L101.437 15.3424C101.442 14.6848 101.488 14.0281 101.577 13.3767L101.47 13.2445C101.317 13.2676 101.106 13.2842 100.843 13.3007V13.2974Z" fill="white"/>
</g>
<defs>
<clipPath id="clip0_1_812">
<rect width="157" height="19" fill="white" transform="translate(2 13)"/>
</clipPath>
</defs>
</svg>
