<svg width="114" height="60" viewBox="0 0 114 60" fill="none" xmlns="http://www.w3.org/2000/svg">
<g clip-path="url(#clip0_710_5319)">
<g clip-path="url(#clip1_710_5319)">
<path d="M98.0214 12.9194L89.4956 25.2753L80.9202 12.9194H72.2461V45.113H82.7436V33.5291L89.4956 43.1829L96.1981 33.5291V45.1132H106.696V12.9194H98.0214Z" fill="#873D94"/>
<path d="M40.4121 45.113H53.2357L55.8134 39.6154L58.3911 45.113H70.9628L55.8129 12.9194L40.4121 45.113Z" fill="#873D94"/>
<path d="M41.5822 30.2141L47.4066 12.9199H36.2688L32.4741 26.8292L28.6787 12.9199H21.4834L17.6885 26.8292L13.8936 12.9199H2.75586L9.83832 33.95L41.5822 30.2141Z" fill="#873D94"/>
<path d="M12.1992 40.9641L13.5965 45.1131H36.5627L39.0231 37.8071L12.1992 40.9641Z" fill="#873D94"/>
<path d="M16.7628 37.5976C17.1362 36.1628 16.2513 34.7032 14.7863 34.3375C13.3212 33.9717 11.8309 34.8384 11.4574 36.2732C11.084 37.708 11.9689 39.1676 13.4339 39.5333C14.899 39.899 16.3893 39.0324 16.7628 37.5976Z" fill="#873D94"/>
<path d="M26.4906 38.1824C27.9511 37.8004 28.8189 36.3311 28.4288 34.9008C28.0387 33.4705 26.5386 32.6206 25.0781 33.0026C23.6176 33.3846 22.7498 34.8539 23.1399 36.2842C23.5299 37.7146 25.0301 38.5644 26.4906 38.1824Z" fill="#873D94"/>
<path d="M39.8587 34.3241C39.8989 32.8439 38.7062 31.612 37.1947 31.5726C35.6833 31.5333 34.4254 32.7013 34.3853 34.1816C34.3451 35.6618 35.5378 36.8937 37.0492 36.9331C38.5607 36.9724 39.8185 35.8044 39.8587 34.3241Z" fill="#873D94"/>
</g>
</g>
<defs>
<clipPath id="clip0_710_5319">
<rect width="113" height="60" fill="white" transform="translate(0.199219)"/>
</clipPath>
<clipPath id="clip1_710_5319">
<rect width="103.939" height="32.1936" fill="white" transform="translate(2.75977 12.9189)"/>
</clipPath>
</defs>
</svg>
