<svg width="99" height="46" viewBox="0 0 99 46" fill="none" xmlns="http://www.w3.org/2000/svg">
<g clip-path="url(#clip0_1_802)">
<path fill-rule="evenodd" clip-rule="evenodd" d="M36.9355 16.4319V26.4774H39.349H41.7626V22.6137C41.7626 20.0637 41.7626 18.6728 41.7626 18.5183C41.838 18.1319 41.9135 17.7456 42.1397 17.4365C42.4414 16.8956 42.9694 16.6637 43.5728 16.741C44.4024 16.8183 44.9304 17.2819 45.0812 18.2865C45.0812 18.441 45.0812 19.9865 45.0812 22.4592V26.4001H47.4948H49.9084V21.7637C49.9084 17.8228 49.9084 17.0501 49.8329 16.6637C49.6821 15.2728 49.2296 14.191 48.3999 13.4183C47.7211 12.7228 46.8914 12.3365 45.9109 12.1819C45.5338 12.1047 44.4779 12.1819 44.1762 12.2592C43.2711 12.491 42.5923 12.8001 41.9889 13.4956L41.6118 13.8047V10.0956V6.38647H39.1982H36.7846V16.4319H36.9355ZM88.2236 6.54102C88.0728 6.85011 83.1702 18.9819 83.1702 18.9819C83.1702 18.9819 84.4524 18.9819 86.0363 18.9819H88.9024L91.4668 12.7228C92.8999 9.24557 94.0313 6.38647 94.0313 6.38647C94.0313 6.38647 92.749 6.38647 91.1651 6.38647H88.299L88.2236 6.54102ZM26.3762 12.2592C25.3202 12.4137 24.4906 12.7228 23.6609 13.2637C22.0016 14.3456 20.9457 16.2001 20.644 18.3637C20.4931 19.3683 20.5685 20.6047 20.7948 21.5319C21.3982 23.9274 22.9821 25.7819 25.0185 26.4774C25.7728 26.7092 26.0745 26.7865 26.9796 26.7865C27.6584 26.7865 27.8846 26.7865 28.1109 26.7092C29.0914 26.4774 29.7702 26.091 30.3736 25.4728L30.6753 25.1637V25.7819V26.4001H33.0135H35.3516V19.4456V12.491H33.0135H30.6753V13.1092V13.7274L30.449 13.4956C29.9211 12.8774 29.1668 12.491 28.1863 12.2592C27.8846 12.1819 27.7338 12.1819 27.1304 12.1819C26.7533 12.2592 26.4516 12.2592 26.3762 12.2592ZM57.149 12.2592C55.8668 12.4137 54.5092 13.0319 53.5287 13.8047C51.6431 15.4274 50.6626 17.9774 51.0397 20.6047C51.4168 23.541 53.4533 25.7819 56.3194 26.5547C56.9228 26.7092 57.5262 26.7865 58.2804 26.7865C59.638 26.7865 60.6185 26.5547 61.6745 26.0137C63.7863 24.9319 65.144 23.0001 65.4457 20.6047C65.5211 19.9865 65.5211 18.9819 65.4457 18.441C65.2948 17.2819 64.8423 16.1228 64.1635 15.1956C63.8618 14.8092 63.2584 14.1137 62.8812 13.8047C61.8253 12.9547 60.6185 12.4137 59.2609 12.2592C58.7329 12.1819 57.677 12.1819 57.149 12.2592ZM72.5355 12.2592C71.2533 12.4137 69.9711 12.9547 68.9906 13.8047C68.6135 14.1137 67.9346 14.8092 67.7084 15.1956C67.0296 16.1228 66.6524 17.2819 66.4262 18.441C66.3507 18.9819 66.3507 20.0637 66.4262 20.6047C66.8787 23.6956 69.066 26.091 72.0829 26.7092C72.6863 26.8637 72.988 26.8637 73.6668 26.8637C74.949 26.8637 76.0804 26.6319 77.1363 26.0137C79.927 24.5456 81.4355 21.3001 80.7567 17.9774C80.1533 14.8865 77.7397 12.6456 74.6474 12.2592C74.1194 12.1819 73.0635 12.1819 72.5355 12.2592ZM5.03125 12.5683C5.03125 12.5683 6.31345 15.7365 7.89735 19.6001C9.48125 23.4637 10.7635 26.6319 10.7635 26.6319C10.7635 26.6319 10.3109 27.791 9.70752 29.1819C9.10413 30.5728 8.65159 31.6547 8.65159 31.7319C8.65159 31.8092 9.78295 31.7319 11.216 31.7319H13.7804L17.627 22.2274C19.7389 16.9728 21.4736 12.7228 21.4736 12.6456C21.4736 12.6456 20.9457 12.5683 18.9092 12.6456H16.3448L14.7609 16.6637C14.0821 18.8274 13.4033 20.6819 13.4033 20.6819C13.4033 20.6819 12.7245 18.8274 11.8194 16.6637L10.3109 12.6456H7.67108C6.23803 12.5683 5.03125 12.5683 5.03125 12.5683ZM28.7143 16.741C29.6948 16.9728 30.449 17.7456 30.7507 18.7501C30.8262 19.1365 30.8262 19.8319 30.7507 20.2183C30.5245 21.2228 29.7702 21.9956 28.7897 22.2274C28.4126 22.3047 27.7338 22.3047 27.3567 22.2274C26.527 21.9956 25.7728 21.3774 25.4711 20.6047C25.094 19.7547 25.2448 18.6728 25.6974 17.9001C26.3762 16.8956 27.5075 16.5092 28.7143 16.741ZM58.8084 16.8183C59.8643 16.9728 60.694 17.8228 60.9202 18.9047C60.9957 19.291 60.9957 19.9092 60.9202 20.2956C60.694 21.3001 59.9397 21.9956 59.0346 22.3047C58.7329 22.3819 57.9033 22.3819 57.6016 22.3047C56.8473 22.0728 56.244 21.5319 55.8668 20.8365C55.6406 20.3728 55.6406 20.141 55.6406 19.6001C55.6406 19.1365 55.716 18.9047 55.8668 18.5183C56.0931 18.0547 56.3948 17.591 56.8473 17.2819C57.2999 16.8183 58.0541 16.6637 58.8084 16.8183ZM74.1194 16.8183C75.0245 16.9728 75.7787 17.591 76.0804 18.441C76.2312 18.8274 76.3067 19.0592 76.3067 19.5228C76.3067 20.0637 76.2312 20.2956 76.0804 20.7592C75.7787 21.4547 75.0999 21.9956 74.3457 22.2274C74.044 22.3047 73.2143 22.3047 72.9126 22.2274C72.0075 21.9956 71.2533 21.2228 71.027 20.2183C70.9516 19.8319 70.9516 19.1365 71.027 18.7501C71.3287 17.5137 72.3846 16.6637 73.5914 16.6637C73.7423 16.741 73.9685 16.741 74.1194 16.8183ZM84.377 20.2183C82.944 20.3728 81.888 21.4547 81.5863 22.8456C81.5109 23.2319 81.5109 23.9274 81.5863 24.3137C81.888 25.5501 82.7931 26.4001 83.9999 26.7092C84.1507 26.7092 84.4524 26.7865 84.6787 26.7865C85.5838 26.7865 86.338 26.4774 86.9414 25.8592C87.6202 25.1637 87.8465 24.4683 87.8465 23.541C87.8465 22.3819 87.3185 21.3774 86.4135 20.8365C85.8101 20.2956 84.9804 20.141 84.377 20.2183ZM44.6287 27.791C43.6482 28.1001 43.1957 29.2592 43.7236 30.1092C43.8745 30.341 44.1762 30.6501 44.4024 30.7274C44.6287 30.8047 44.6287 30.8047 45.0812 30.8047C45.4584 30.8047 45.5338 30.8047 45.7601 30.7274C46.0618 30.5728 46.3635 30.2637 46.5143 29.9547C46.8914 29.1819 46.5143 28.2547 45.7601 27.8683C45.5338 27.7137 45.4584 27.7137 45.1567 27.7137C44.855 27.7137 44.7796 27.7137 44.6287 27.791ZM40.5558 27.8683C39.2736 28.1001 38.444 28.9501 38.0668 30.341C37.9914 30.5728 37.9914 30.8047 37.9914 31.1137V31.6547H37.4635H36.9355V32.8137V33.9728H37.4635H37.9914V36.7547V39.5365H39.4245H40.8575V36.7547V33.9728H41.838H42.8185V32.8137V31.6547H41.838H40.8575V31.4228C40.9329 30.8819 41.1592 30.4956 41.6118 30.4183C41.9135 30.341 42.366 30.341 42.6677 30.4956C42.8185 30.5728 42.894 30.5728 42.894 30.5728C42.894 30.5728 42.894 30.0319 42.894 29.3365V28.1001L42.6677 28.0228C42.366 27.8683 41.9889 27.8683 41.4609 27.8683C41.0838 27.791 40.7821 27.8683 40.5558 27.8683ZM52.0202 31.5001C51.4168 31.6547 50.9643 31.9637 50.6626 32.3501L50.5118 32.5819V32.1183V31.6547H49.0787H47.6457V35.5956V39.5365H49.0787H50.5118V37.3728C50.5118 36.1365 50.5118 35.1319 50.5118 34.9774C50.5872 34.6683 50.738 34.3592 50.8889 34.2047C51.266 33.8956 51.9448 33.9728 52.2465 34.3592C52.4728 34.6683 52.4728 34.6683 52.4728 37.141V39.4592H53.9058H55.3389V36.8319C55.3389 34.0501 55.3389 33.741 55.188 33.2001C55.0372 32.7365 54.8863 32.3501 54.5092 32.041C54.2075 31.7319 53.9058 31.5001 53.4533 31.4228C53.0762 31.4228 52.3219 31.4228 52.0202 31.5001ZM59.1855 31.4228C58.7329 31.5001 58.0541 31.7319 57.677 32.041C56.8474 32.6592 56.3194 33.5865 56.0931 34.7456C56.0177 35.2092 56.0177 36.0592 56.0931 36.5228C56.244 37.2183 56.4702 37.9138 56.8473 38.3774C57.3753 39.0728 58.0541 39.5365 58.8838 39.691C59.3363 39.7683 60.0906 39.7683 60.4677 39.6137C60.9202 39.4592 61.2219 39.3047 61.599 38.9956L61.9007 38.6865V39.0728V39.4592H63.3338H64.7668V35.5183V31.5774H63.3338H61.9007V31.9637V32.3501L61.6745 32.2728C61.2974 31.8865 60.7694 31.5774 60.166 31.5001C59.9397 31.4228 59.4118 31.4228 59.1855 31.4228ZM70.1219 31.5001C69.594 31.5774 69.066 31.9637 68.7643 32.3501L68.6135 32.5047V32.041V31.5774H67.1804H65.7474V35.5183V39.4592H67.1804H68.6135V37.2183C68.6135 34.8228 68.6135 34.8228 68.7643 34.4365C68.9151 34.1274 69.2168 33.9728 69.5185 33.9728C69.8202 33.9728 69.9711 34.0501 70.1974 34.2047C70.499 34.5137 70.499 34.4365 70.499 37.0637V39.3819H71.9321H73.3651V36.5228C73.3651 33.6637 73.3651 33.6637 73.2897 33.3547C73.2143 33.2001 73.1389 32.891 73.0635 32.6592C72.9126 32.3501 72.8372 32.2728 72.6109 32.041C72.3092 31.7319 72.0829 31.5774 71.7813 31.4228C71.2533 31.4228 70.6499 31.3456 70.1219 31.5001ZM77.5889 31.5001C76.3067 31.7319 75.3262 32.3501 74.7228 33.4319C74.5719 33.741 74.4211 34.1274 74.2702 34.5137C74.1948 34.9001 74.1948 34.9774 74.1948 35.5956C74.1948 36.291 74.1948 36.5228 74.4211 37.0637C74.8736 38.3774 75.9296 39.3819 77.3626 39.691C77.5889 39.7683 77.8151 39.7683 78.3431 39.7683C79.0973 39.7683 79.399 39.691 79.927 39.4592L80.2287 39.3047V37.991V36.6774L80.0024 36.8319C79.6253 37.0638 79.399 37.141 78.9465 37.141C78.494 37.141 78.2677 37.141 77.966 36.9865C77.6643 36.8319 77.438 36.6001 77.2872 36.291C77.2118 36.0592 77.2118 36.0592 77.2118 35.6728C77.2118 35.3637 77.2118 35.2865 77.2872 35.0547C77.5135 34.4365 78.0414 34.1274 78.7957 34.0501C79.3236 34.0501 79.5499 34.0501 80.3041 34.4365C80.3041 34.4365 80.3041 33.8183 80.3041 33.1228V31.8092L80.0779 31.7319C79.2482 31.4228 78.3431 31.3456 77.5889 31.5001ZM84.0753 31.5001C81.888 31.8865 80.5304 33.8183 80.6813 36.0592C80.7567 36.8319 80.9829 37.5274 81.3601 38.0683C81.888 38.9183 82.7177 39.4592 83.7736 39.691C84.2262 39.7683 85.4329 39.7683 85.9609 39.691C86.7152 39.5365 87.394 39.1501 87.9219 38.6092C88.1482 38.3774 88.5253 37.8365 88.5253 37.8365C88.5253 37.8365 87.9974 37.6047 87.3185 37.3728L86.1118 36.9092L85.9609 37.0637C85.7346 37.2956 85.5838 37.3728 85.2821 37.4501C84.4524 37.6819 83.6228 37.2183 83.4719 36.4456V36.291H86.1118H88.7516V35.5956C88.7516 35.1319 88.7516 34.8228 88.6762 34.6683C88.5253 33.741 88.1482 33.1228 87.6202 32.5047C87.0923 31.9638 86.4889 31.6547 85.6592 31.5001C85.3575 31.4228 84.4524 31.4228 84.0753 31.5001ZM43.6482 35.5956V39.5365H45.0812H46.5143V35.5956V31.6547H45.0812H43.6482V35.5956ZM85.2067 33.6638C85.4329 33.741 85.5084 33.8183 85.7346 33.9728C85.8855 34.1274 86.0363 34.2819 86.0363 34.5137V34.6683H84.7541C83.3211 34.6683 83.3965 34.6683 83.5474 34.3592C83.7736 33.8183 84.4524 33.5092 85.2067 33.6638ZM60.8448 34.0501C61.2219 34.1274 61.6745 34.5137 61.8253 34.9001C62.2024 35.7501 61.8253 36.7547 60.9202 37.0637C60.6185 37.141 60.166 37.141 59.8643 37.0637C59.4118 36.9092 58.9592 36.5228 58.8838 36.0592C58.8084 35.8274 58.8084 35.7501 58.8084 35.5183C58.8084 35.2092 58.8084 35.1319 58.9592 34.9001C59.2609 34.2047 60.0151 33.8956 60.8448 34.0501Z" fill="white"/>
</g>
<defs>
<clipPath id="clip0_1_802">
<rect width="89" height="34" fill="white" transform="translate(5.03125 6)"/>
</clipPath>
</defs>
</svg>
